<svg width="108" height="55" viewBox="0 0 108 55" fill="none" xmlns="http://www.w3.org/2000/svg">
<path d="M1 4.87335L5.48002 7.84537C9.30872 10.3853 14.3923 9.90082 17.6723 6.68341L18.1736 6.19171C21.6793 2.75296 27.3305 2.79034 30.8362 6.22909V6.22909C34.2257 9.55392 39.6643 9.67022 43.1513 6.44781V6.44781C46.6328 3.2305 52.0246 3.30491 55.416 6.61707L55.6306 6.82667C59.063 10.1788 64.5438 10.1784 67.9762 6.82628V6.82628C71.4453 3.43824 77.0371 3.51972 80.4546 6.95979V6.95979C83.865 10.3927 89.4581 10.4328 92.8686 6.99981V6.99981C96.3041 3.54158 101.907 3.57081 105.307 7.06469L106.823 8.62307" stroke="black"/>
<path d="M1 15.3165L5.48002 18.2885C9.30872 20.8284 14.3923 20.3439 17.6723 17.1265L18.1736 16.6348C21.6793 13.1961 27.3305 13.2335 30.8362 16.6722V16.6722C34.2257 19.997 39.6643 20.1133 43.1513 16.8909V16.8909C46.6328 13.6736 52.0246 13.748 55.416 17.0602L55.6306 17.2698C59.063 20.622 64.5438 20.6216 67.9762 17.2694V17.2694C71.4453 13.8814 77.0371 13.9628 80.4546 17.4029V17.4029C83.865 20.8359 89.4581 20.8759 92.8686 17.4429V17.4429C96.3041 13.9847 101.907 14.0139 105.307 17.5078L106.823 19.0662" stroke="black"/>
<path d="M1 25.7596L5.48002 28.7316C9.30872 31.2715 14.3923 30.787 17.6723 27.5696L18.1736 27.0779C21.6793 23.6392 27.3305 23.6766 30.8362 27.1153V27.1153C34.2257 30.4402 39.6643 30.5564 43.1513 27.334V27.334C46.6328 24.1167 52.0246 24.1911 55.416 27.5033L55.6306 27.7129C59.063 31.0651 64.5438 31.0647 67.9762 27.7125V27.7125C71.4453 24.3245 77.0371 24.406 80.4546 27.846V27.846C83.865 31.279 89.4581 31.319 92.8686 27.886V27.886C96.3041 24.4278 101.907 24.457 105.307 27.9509L106.823 29.5093" stroke="black"/>
<path d="M1 36.2025L5.48002 39.1745C9.30872 41.7144 14.3923 41.2299 17.6723 38.0125L18.1736 37.5208C21.6793 34.0821 27.3305 34.1194 30.8362 37.5582V37.5582C34.2257 40.883 39.6643 40.9993 43.1513 37.7769V37.7769C46.6328 34.5596 52.0246 34.634 55.416 37.9462L55.6306 38.1558C59.063 41.5079 64.5438 41.5076 67.9762 38.1554V38.1554C71.4453 34.7673 77.0371 34.8488 80.4546 38.2889V38.2889C83.865 41.7219 89.4581 41.7619 92.8686 38.3289V38.3289C96.3041 34.8707 101.907 34.8999 105.307 38.3938L106.823 39.9522" stroke="black"/>
<path d="M1 46.6456L5.48002 49.6176C9.30872 52.1575 14.3923 51.673 17.6723 48.4556L18.1736 47.9639C21.6793 44.5252 27.3305 44.5626 30.8362 48.0013V48.0013C34.2257 51.3261 39.6643 51.4424 43.1513 48.22V48.22C46.6328 45.0027 52.0246 45.0771 55.416 48.3893L55.6306 48.5989C59.063 51.9511 64.5438 51.9507 67.9762 48.5985V48.5985C71.4453 45.2105 77.0371 45.2919 80.4546 48.732V48.732C83.865 52.165 89.4581 52.205 92.8686 48.772V48.772C96.3041 45.3138 101.907 45.343 105.307 48.8369L106.823 50.3953" stroke="black"/>
</svg>
