<svg width="369" height="423" viewBox="0 0 369 423" fill="none" xmlns="http://www.w3.org/2000/svg">
<g clip-path="url(#clip0_49_79)">
<path d="M349.69 394.164C349.69 410.089 271.41 423 174.845 423C78.2798 423 0 410.089 0 394.164C0 382.89 39.2386 373.123 96.4242 368.385C120.006 366.425 146.65 365.328 174.845 365.328C186.436 365.328 197.761 365.514 208.714 365.867C289.07 368.472 349.69 380.149 349.69 394.164Z" fill="#3F3D56"/>
<path opacity="0.1" d="M152.284 400.055C189.353 400.055 219.402 396.029 219.402 391.063C219.402 386.097 189.353 382.071 152.284 382.071C115.216 382.071 85.1665 386.097 85.1665 391.063C85.1665 396.029 115.216 400.055 152.284 400.055Z" fill="black"/>
<path d="M152.003 397.575C187.046 397.575 215.454 364.258 215.454 323.159C215.454 282.06 187.046 248.743 152.003 248.743C116.959 248.743 88.5508 282.06 88.5508 323.159C88.5508 364.258 116.959 397.575 152.003 397.575Z" fill="#3F3D56"/>
<path d="M172.025 367.188H132.544V406.877H172.025V367.188Z" fill="#0E0E0E"/>
<path d="M223.633 376.801L221.376 390.443L236.041 392.924L245.629 386.723L245.065 376.801H223.633Z" fill="#575A89"/>
<path d="M149.746 120.686C149.746 120.686 148.618 134.949 145.798 135.569C142.978 136.189 152.003 160.994 152.003 160.994H165.539L176.255 157.894L171.179 144.251C171.179 144.251 164.411 134.329 169.487 126.267C174.563 118.205 149.746 120.686 149.746 120.686Z" fill="#A0616A"/>
<path opacity="0.1" d="M149.746 120.686C149.746 120.686 148.618 134.949 145.798 135.569C142.978 136.189 152.003 160.994 152.003 160.994H165.539L176.255 157.894L171.179 144.251C171.179 144.251 164.411 134.329 169.487 126.267C174.563 118.205 149.746 120.686 149.746 120.686Z" fill="black"/>
<path d="M121.545 229.829C121.545 229.829 106.881 260.836 118.725 267.037C130.57 273.238 133.39 272.618 133.39 274.479C133.39 276.339 131.134 275.719 132.262 278.82C133.39 281.92 130.006 294.323 133.39 301.764C136.774 309.206 135.646 314.787 135.646 314.787C135.646 314.787 135.646 315.407 136.774 317.888C137.902 320.368 138.466 322.229 137.902 323.469C137.338 324.709 133.954 332.771 137.338 334.631C140.722 336.492 158.206 337.732 159.898 334.631C161.591 331.531 158.206 329.67 159.898 327.81C161.591 325.95 162.719 325.329 161.591 324.089C160.463 322.849 159.334 307.346 159.334 307.346C159.334 307.346 162.155 289.362 161.027 286.881C159.898 284.401 158.206 281.92 159.334 280.06C160.463 278.199 161.591 278.82 162.155 276.339C162.719 273.858 163.847 268.277 163.847 268.277L170.051 267.657L184.715 270.758C184.715 270.758 201.072 290.602 219.12 296.803C219.12 296.803 224.196 302.385 225.888 302.385C227.58 302.385 227.58 302.385 227.016 303.625C226.452 304.865 224.76 304.865 225.888 306.105C227.016 307.346 228.708 305.485 227.58 307.346C226.452 309.206 225.324 309.206 226.452 310.446C227.58 311.686 225.888 318.508 225.888 319.128C225.888 319.748 220.812 378.041 222.504 379.281C224.196 380.521 247.885 384.242 249.577 379.281C251.269 374.32 248.449 368.118 248.449 368.118C248.449 368.118 256.909 293.703 254.653 288.742C252.397 283.781 244.501 261.456 202.2 247.193C202.2 247.193 190.355 244.712 190.355 242.852C190.355 240.992 189.227 229.209 186.971 228.589C184.715 227.969 171.743 227.349 171.743 227.349L155.386 232.93L132.826 228.589L121.545 229.829Z" fill="#2F2E41"/>
<path d="M141.286 334.011L138.466 345.174C138.466 345.174 136.21 363.157 139.03 367.498C141.245 370.908 145.2 375.083 152.535 375.816C154.591 376.023 156.649 375.453 158.37 374.199C160.091 372.945 161.371 371.083 161.999 368.921C162.083 368.662 162.135 368.393 162.155 368.118C162.155 366.878 160.463 351.995 160.463 351.995L157.643 336.492L157.079 332.151L141.286 334.011Z" fill="#2F2E41"/>
<path d="M223.633 387.342C223.633 387.342 220.813 384.242 220.249 387.342C219.684 390.443 217.428 403.466 221.377 404.086C225.325 404.706 263.114 410.907 267.062 408.427C271.01 405.946 278.342 402.226 273.83 400.365C269.318 398.505 256.346 392.924 256.346 392.924C256.346 392.924 249.013 382.381 247.885 381.761C246.757 381.141 240.553 382.381 237.733 384.862C234.913 387.342 223.633 387.342 223.633 387.342Z" fill="#2F2E41"/>
<path d="M163.283 133.709C172.939 133.709 180.767 125.102 180.767 114.485C180.767 103.867 172.939 95.2605 163.283 95.2605C153.626 95.2605 145.798 103.867 145.798 114.485C145.798 125.102 153.626 133.709 163.283 133.709Z" fill="#A0616A"/>
<path d="M161.591 157.894L154.822 149.832L147.32 133.709C147.32 133.709 141.85 131.848 140.722 134.949C139.594 138.05 119.289 147.972 119.289 147.972C119.289 147.972 124.366 200.063 122.109 205.024C119.853 209.985 115.905 229.829 119.289 231.69C122.673 233.55 138.466 231.69 143.542 234.17C148.618 236.651 163.283 236.651 167.231 233.55C171.179 230.449 172.307 227.969 176.255 229.829C179.616 231.413 187.474 177.266 189.736 161.13C189.927 159.775 189.768 158.388 189.279 157.127C188.79 155.865 187.989 154.78 186.968 153.993C181.907 150.09 172.792 143.364 171.179 144.251C168.923 145.491 161.591 157.894 161.591 157.894Z" fill="#575A89"/>
<path d="M185.843 155.413C187.168 155.777 188.359 156.578 189.258 157.709C190.156 158.839 190.718 160.244 190.869 161.736L195.432 206.884C195.432 206.884 184.151 233.55 178.511 215.566C172.871 197.582 185.843 155.413 185.843 155.413Z" fill="#575A89"/>
<path d="M184.715 211.225L197.124 207.504C197.124 207.504 199.38 224.868 201.636 224.868C203.892 224.868 193.74 234.79 188.663 233.55C183.587 232.31 176.255 227.969 175.691 224.868C175.127 221.767 180.767 208.745 180.767 208.745L184.715 211.225Z" fill="#575A89"/>
<path d="M150.084 122.778C151.272 119.895 151.066 116.533 152.049 113.558C152.575 111.966 153.429 110.528 154.545 109.358C155.66 108.189 157.006 107.318 158.478 106.815C159.95 106.312 161.507 106.189 163.029 106.458C164.551 106.726 165.996 107.377 167.251 108.361C168.515 109.353 169.783 110.745 171.326 110.556C172.988 110.352 174.471 108.314 175.999 109.061C177.692 109.889 177.235 113.226 178.951 113.997C179.854 114.403 180.921 113.778 181.442 112.871C181.898 111.918 182.146 110.861 182.167 109.785C182.404 107.14 182.618 104.341 181.575 101.943C181.136 101.131 180.753 100.283 180.431 99.4071C180.248 98.5892 180.175 97.7464 180.213 96.9053C180.204 93.7965 179.997 90.5538 178.574 87.8674C176.995 84.8863 174.077 82.9801 171.032 82.1484C167.987 81.3166 164.796 81.4441 161.67 81.7351C156.502 82.2162 151.112 83.2474 147.04 86.7799C146.487 87.2244 146.011 87.7747 145.634 88.4044C145.277 89.1524 145.024 89.9555 144.885 90.7866C144.005 94.7282 142.685 98.5351 140.955 102.121C140.123 103.641 139.443 105.255 138.927 106.936C138.495 108.645 138.525 110.591 139.428 112.059C140.164 113.254 141.341 113.891 142.265 114.869C143.181 115.837 143.61 117.699 144.624 118.432C145.51 119.072 146.571 118.621 147.474 119.299C148.634 120.17 148.718 122.08 150.084 122.778Z" fill="#2F2E41"/>
<path d="M164.411 167.196L166.103 163.475C166.103 163.475 190.919 171.537 195.996 178.978C195.996 178.978 208.404 170.297 215.172 171.537L221.94 172.777L201.072 193.241L174.563 190.761L164.411 167.196Z" fill="#F2F2F2"/>
<path d="M163.283 163.475L140.158 198.823L173.435 216.806C173.435 216.806 176.546 218.667 178.939 216.806L201.072 205.644L221.941 172.777L201.072 184.56C201.072 184.56 198.816 179.599 194.304 182.079L163.283 163.475Z" fill="#0E0E0E"/>
<path d="M198.816 226.108L203.328 213.085C203.328 213.085 213.48 198.822 207.84 192.001C202.2 185.18 195.996 211.845 195.996 211.845L198.816 226.108Z" fill="#A0616A"/>
<path d="M146.756 224.03L156.601 215.254C156.601 215.254 171.892 208.516 170.126 199.504C168.36 190.492 150.825 210.137 150.825 210.137L146.756 224.03Z" fill="#A0616A"/>
<path opacity="0.1" d="M122.391 161.305H121.827C121.827 161.305 113.085 149.832 111.393 165.335C109.701 180.839 104.061 232.31 118.725 234.17C133.39 236.03 143.824 226.418 143.824 226.418C143.824 226.418 154.54 208.435 150.592 208.435C148.682 208.435 143.487 207.491 138.748 207.814C133.693 208.159 129.151 209.725 129.442 208.124C130.006 205.024 138.184 165.645 122.391 161.305Z" fill="black"/>
<path d="M121.546 149.212L119.29 147.972C119.29 147.972 110.265 149.832 108.573 165.335C106.881 180.839 101.241 232.31 115.906 234.17C130.57 236.03 150.31 231.689 150.31 231.689C150.31 231.689 154.259 208.124 150.31 208.124C146.362 208.124 126.058 211.225 126.622 208.124C127.186 205.024 137.338 153.553 121.546 149.212Z" fill="#575A89"/>
<path d="M190.638 218.977L196.857 208.496L200.79 225.799L190.638 230.76V218.977Z" fill="#575A89"/>
<path d="M62.8725 69.5252C71.2829 69.5252 78.1009 62.0288 78.1009 52.7816C78.1009 43.5344 71.2829 36.0381 62.8725 36.0381C54.462 36.0381 47.644 43.5344 47.644 52.7816C47.644 62.0288 54.462 69.5252 62.8725 69.5252Z" fill="black"/>
<path d="M80.9213 177.428H44.8242V217.116H80.9213V177.428Z" fill="black"/>
<path d="M209.814 0L218.95 17.399L228.086 34.7981H209.814H191.542L200.677 17.399L209.814 0Z" fill="black"/>
<path d="M369 104.324C368.782 111.747 367.138 117.697 364.068 122.174C360.997 126.651 357.35 128.89 353.125 128.89C349.684 128.89 346.668 126.699 344.077 122.317C341.485 117.936 340.189 111.196 340.19 102.097C340.19 100.086 340.233 98.1708 340.32 96.3511C340.407 94.5317 340.516 92.8078 340.647 91.1793L342.934 67.5474H327.842C325.229 97.4285 323.084 115.206 321.407 120.881C319.73 126.555 316.889 129.393 312.882 129.393C311.073 129.344 309.348 128.549 308.047 127.166C307.294 126.432 306.697 125.522 306.302 124.504C305.907 123.485 305.722 122.383 305.761 121.276C305.761 119.074 307.34 115.997 310.497 112.046C313.655 108.095 315.408 104.492 315.756 101.236L319.676 67.5474H313.339C311.553 67.5591 309.795 68.0392 308.211 68.948C306.753 69.6841 305.485 70.8072 304.52 72.2162L301.71 76.8133H299.424C301.557 69.535 304.181 64.0639 307.296 60.4003C310.41 56.7369 313.992 54.9052 318.043 54.9053H367.955V67.5473H351.1C350.577 73.2937 350.174 79.0401 349.891 84.7864C349.608 90.5328 349.466 96.3031 349.467 102.097C349.467 106.024 350.294 109.209 351.949 111.651C353.604 114.093 355.673 115.314 358.156 115.314C359.68 115.314 361.28 114.632 362.957 113.267C363.754 112.653 364.42 111.856 364.91 110.933C365.401 110.009 365.704 108.98 365.799 107.916C365.93 106.863 366.028 106.037 366.093 105.437C366.158 104.839 366.191 104.468 366.191 104.324L369 104.324Z" fill="#0E0E0E"/>
<path opacity="0.1" d="M369 104.324C368.782 111.747 367.138 117.697 364.068 122.174C360.997 126.651 357.35 128.89 353.125 128.89C349.684 128.89 346.668 126.699 344.077 122.317C341.485 117.936 340.189 111.196 340.19 102.097C340.19 100.086 340.233 98.1708 340.32 96.3511C340.407 94.5317 340.516 92.8078 340.647 91.1793L342.934 67.5474H327.842C325.229 97.4285 323.084 115.206 321.407 120.881C319.73 126.555 316.889 129.393 312.882 129.393C311.073 129.344 309.348 128.549 308.047 127.166C307.294 126.432 306.697 125.522 306.302 124.504C305.907 123.485 305.722 122.383 305.761 121.276C305.761 119.074 307.34 115.997 310.497 112.046C313.655 108.095 315.408 104.492 315.756 101.236L319.676 67.5474H313.339C311.553 67.5591 309.795 68.0392 308.211 68.948C306.753 69.6841 305.485 70.8072 304.52 72.2162L301.71 76.8133H299.424C301.557 69.535 304.181 64.0639 307.296 60.4003C310.41 56.7369 313.992 54.9052 318.043 54.9053H367.955V67.5473H351.1C350.577 73.2937 350.174 79.0401 349.891 84.7864C349.608 90.5328 349.466 96.3031 349.467 102.097C349.467 106.024 350.294 109.209 351.949 111.651C353.604 114.093 355.673 115.314 358.156 115.314C359.68 115.314 361.28 114.632 362.957 113.267C363.754 112.653 364.42 111.856 364.91 110.933C365.401 110.009 365.704 108.98 365.799 107.916C365.93 106.863 366.028 106.037 366.093 105.437C366.158 104.839 366.191 104.468 366.191 104.324L369 104.324Z" fill="black"/>
<path d="M369 102.08C368.782 109.503 367.138 115.453 364.068 119.929C360.997 124.406 357.35 126.645 353.125 126.646C349.684 126.646 346.668 124.455 344.077 120.073C341.485 115.691 340.189 108.951 340.19 99.8531C340.19 97.8419 340.233 95.9264 340.32 94.1066C340.407 92.2873 340.516 90.5634 340.647 88.935L342.934 65.303H327.842C325.229 95.1841 323.084 112.962 321.407 118.637C319.73 124.311 316.889 127.148 312.882 127.148C311.073 127.1 309.348 126.305 308.047 124.922C307.294 124.187 306.697 123.278 306.302 122.259C305.907 121.241 305.722 120.138 305.761 119.032C305.761 116.83 307.34 113.753 310.497 109.801C313.655 105.851 315.408 102.247 315.756 98.9911L319.676 65.303H313.339C311.553 65.3147 309.795 65.7948 308.211 66.7036C306.753 67.4397 305.485 68.5628 304.52 69.9718L301.71 74.5689H299.424C301.557 67.2906 304.181 61.8195 307.296 58.1559C310.41 54.4925 313.992 52.6609 318.043 52.6609H367.955V65.303H351.1C350.577 71.0494 350.174 76.7957 349.891 82.542C349.608 88.2884 349.466 94.0588 349.467 99.853C349.467 103.78 350.294 106.965 351.949 109.406C353.604 111.849 355.673 113.07 358.156 113.07C359.68 113.07 361.28 112.387 362.957 111.022C363.754 110.408 364.42 109.612 364.91 108.688C365.401 107.765 365.704 106.736 365.799 105.671C365.93 104.618 366.028 103.792 366.093 103.193C366.158 102.595 366.191 102.224 366.191 102.08H369Z" fill="#0E0E0E"/>
</g>
<defs>
<clipPath id="clip0_49_79">
<rect width="369" height="423" fill="white"/>
</clipPath>
</defs>
</svg>
