<svg width="343" height="343" viewBox="0 0 343 343" fill="none" xmlns="http://www.w3.org/2000/svg">
<g clip-path="url(#clip0_51_2)">
<path d="M343 171.5C343.021 190.253 339.962 208.883 333.943 226.644C333.598 227.659 333.244 228.67 332.883 229.678C326.509 247.303 317.293 263.766 305.6 278.414C302.109 282.792 298.41 286.99 294.503 291.007C290.596 295.031 286.495 298.858 282.199 302.489C258.236 322.81 229.128 336.12 198.083 340.95H198.077C194.12 341.564 190.123 342.043 186.088 342.386C181.283 342.792 176.42 342.997 171.5 343C148.62 343.03 125.967 338.467 104.883 329.581C83.7988 320.695 64.7128 307.668 48.7558 291.271C47.6344 290.124 46.53 288.961 45.4425 287.78C42.733 284.842 40.1267 281.813 37.6235 278.693C36.218 276.937 34.8464 275.154 33.5085 273.345C25.2679 262.212 18.4117 250.118 13.0909 237.33C10.8218 231.883 8.84023 226.321 7.15435 220.667C7.03257 220.266 6.91586 219.865 6.79916 219.464C6.54546 218.602 6.30023 217.734 6.06345 216.861C2.02717 202.079 -0.0120734 186.823 5.3771e-05 171.5C5.3771e-05 76.7843 76.7844 0 171.5 0C266.216 0 343 76.7843 343 171.5Z" fill="#F2F2F2"/>
<path d="M72.734 102.51C72.4685 104.122 72.5597 105.773 73.0011 107.346C73.4426 108.919 74.2236 110.376 75.2891 111.615C76.3546 112.853 77.6788 113.843 79.1682 114.515C80.6577 115.186 82.2763 115.523 83.9099 115.501L111.286 195.159L128.754 183.154L95.0333 103.372C94.8149 100.63 93.5982 98.0634 91.6138 96.1585C89.6294 94.2536 87.0151 93.1428 84.2665 93.0366C81.5178 92.9304 78.8256 93.8361 76.7001 95.5821C74.5746 97.3282 73.1635 99.7933 72.734 102.51Z" fill="#A0616A"/>
<path d="M215.621 129.462C203.463 143.294 173.486 167.669 148.791 184.454C143.454 188.082 138.359 191.349 133.747 194.084C130.632 195.931 127.734 197.529 125.126 198.833C123.376 199.705 121.464 200.207 119.511 200.305C117.558 200.404 115.606 200.099 113.776 199.408C111.947 198.718 110.279 197.657 108.879 196.292C107.478 194.927 106.375 193.287 105.637 191.476L88.5381 150.108L94.4543 146.186L109.042 136.51L112.355 134.318L126.035 166.898L140.46 155.319L149.416 148.129L190.241 115.367L193.762 114.321L201.977 122.338L207.786 128.011L213.251 128.96C214.068 129.102 214.86 129.269 215.621 129.462Z" fill="black"/>
<path d="M324.693 243.125C325.541 244.201 326.419 245.271 327.296 246.347C324.273 252.556 320.874 258.574 317.118 264.37C316.839 264.172 316.56 263.974 316.281 263.776C316.237 263.752 316.194 263.725 316.154 263.695C315.114 262.954 314.068 262.224 313.028 261.483V261.478C312.17 258.557 311.691 255.539 311.603 252.497C312.139 252.374 312.625 252.089 312.994 251.68C313.363 251.272 313.597 250.76 313.665 250.214C313.733 249.667 313.632 249.114 313.375 248.627C313.117 248.14 312.716 247.745 312.227 247.494C312.09 247.255 311.993 247.083 311.856 246.839C311.861 246.778 311.871 246.712 311.877 246.652C312.673 240.314 320.751 238.102 324.693 243.125Z" fill="white"/>
<path d="M333.801 221.409C334.41 223.083 334.965 224.776 335.465 226.488C335.12 227.502 334.767 228.514 334.405 229.522C334.268 228.989 334.126 228.456 333.979 227.924C333.153 224.961 332.162 222.048 331.01 219.196C330.067 216.857 329.021 214.567 327.875 212.326C321.639 200.152 312.604 189.631 301.51 181.629C296.926 180.568 292.777 178.128 289.622 174.637C288.484 173.382 287.532 171.971 286.796 170.446C287.263 170.38 287.73 170.288 288.186 170.192C288.328 170.162 288.475 170.126 288.618 170.096L288.673 170.085C289.173 169.97 289.628 169.712 289.984 169.344C290.34 168.976 290.583 168.512 290.682 168.009C290.781 167.507 290.733 166.986 290.543 166.51C290.353 166.034 290.03 165.623 289.612 165.326C289.353 165.138 289.089 164.956 288.831 164.773C288.435 164.484 288.034 164.21 287.633 163.926C287.591 163.899 287.55 163.871 287.511 163.839C287.055 163.515 286.598 163.2 286.146 162.87C286.497 161.74 287.103 160.705 287.917 159.846C290.754 156.919 295.817 156.985 299.126 159.369C302.439 161.754 304.103 165.93 304.316 169.999C304.504 173.485 303.753 176.935 302.764 180.299C303.012 180.482 303.271 180.655 303.52 180.842C308.088 184.228 312.313 188.053 316.134 192.264C313.926 187.027 313.125 180.198 313.698 175.494C314.353 170.136 316.956 165.047 319.087 159.978C321.639 153.889 330.346 153.808 332.802 159.938C332.827 159.998 332.852 160.054 332.873 160.115C332.462 160.526 332.066 160.952 331.685 161.394C331.208 161.95 330.909 162.638 330.828 163.366C330.748 164.095 330.889 164.831 331.234 165.478C331.579 166.126 332.111 166.653 332.761 166.993C333.411 167.332 334.149 167.468 334.877 167.381L334.953 167.371C335.269 169.18 335.449 171.01 335.491 172.846C335.554 177.982 334.555 183.076 332.557 187.808C330.56 192.541 327.606 196.809 323.882 200.347C323.638 200.575 323.4 200.798 323.151 201.016C325.501 204.359 327.612 207.864 329.468 211.504C331.115 214.713 332.562 218.021 333.801 221.409Z" fill="white"/>
<path d="M236.034 173.809L234.501 279.048L110.717 275.496L130.485 231.86C130.343 230.459 139.161 220.631 139.111 219.175C138.958 214.908 142.145 210.955 142.662 206.49C143.718 197.281 137.675 162.504 140.46 155.319C141.647 152.111 143.167 149.036 144.997 146.145C146.58 143.751 148.203 142.137 149.756 141.554L154.333 130.888L158.392 124.799L190.241 115.367L193.762 114.322L201.977 122.338L207.787 128.011L213.251 128.96C214.068 129.102 214.86 129.269 215.621 129.462C219.287 130.308 222.703 132 225.596 134.404C235.135 142.507 236.247 157.75 236.034 173.809Z" fill="black"/>
<path d="M307.122 278.257C303.631 282.636 299.932 286.834 296.025 290.851L282.64 290.861L210.656 290.942L197.697 290.957L189.081 290.968L176.264 290.978L166.406 290.988L148.195 291.008L137.454 291.023L114.834 291.044L104.036 291.059L74.1153 291.089L55.3213 291.11L50.2778 291.115C49.1564 289.968 48.052 288.804 46.9645 287.624C44.255 284.686 41.6487 281.657 39.1455 278.536L49.5877 278.526L56.7014 278.521L73.1715 278.501L104.955 278.47L115.696 278.46L120.04 278.455H120.055L123.465 278.45L124.992 278.445L128.904 278.44H130.558L142.157 278.43L167.177 278.399L178.187 278.389L188.731 278.379L198.615 278.369L212.797 278.354L288.541 278.278L307.122 278.257Z" fill="#CCCCCC"/>
<path d="M135.863 120.239L135.836 120.241C134.372 120.378 132.914 119.927 131.783 118.988C130.651 118.049 129.939 116.7 129.803 115.236L126.917 84.4371C126.395 78.9197 126.988 73.3536 128.659 68.0697C131.937 57.7571 139.067 49.107 148.565 43.9219C153.469 41.2517 158.862 39.6021 164.421 39.0726C187.162 36.906 195.473 41.6423 209.521 76.3263C223.569 111.01 212.411 107.172 212.411 107.172C212.481 107.914 212.401 108.663 212.176 109.374C211.734 110.76 210.773 111.923 209.494 112.618C208.838 112.973 208.117 113.194 207.374 113.265C180.489 120.099 153.361 127.293 135.859 120.239L135.863 120.239Z" fill="#2F2E41"/>
<path d="M185.904 68.2554C189.279 73.2487 191.098 79.1302 191.132 85.157C191.166 91.1838 189.414 97.0855 186.096 102.117C182.778 107.148 178.043 111.083 172.49 113.425C166.937 115.768 160.814 116.412 154.895 115.276C150.977 114.537 147.245 113.028 143.914 110.836C140.583 108.644 137.721 105.813 135.492 102.507C132.124 97.5156 130.31 91.6385 130.277 85.6171C130.245 79.5957 131.996 73.6995 135.31 68.6719C138.624 63.6444 143.353 59.7106 148.899 57.3665C154.446 55.0225 160.562 54.3731 166.477 55.5004C170.398 56.2349 174.135 57.7408 177.47 59.9305C180.804 62.1202 183.671 64.9503 185.904 68.2565L185.904 68.2554Z" fill="#9E616A"/>
<path d="M117.384 87.8587C116.971 83.4951 117.44 79.093 118.762 74.9141C119.069 64.6915 122.035 55.4322 134.503 55.8209C138.357 53.7242 142.594 52.4243 146.96 51.9983L153.122 51.3898C153.191 51.383 153.26 51.3763 153.329 51.3698C157.598 50.9726 161.903 51.42 165.999 52.6865C170.095 53.953 173.901 56.0139 177.201 58.7514C180.5 61.4889 183.228 64.8495 185.229 68.6413C187.229 72.4331 188.463 76.5817 188.861 80.8505L188.918 81.4674L175.883 82.7418L170.273 70.7359L170.549 83.2657L163.817 83.9265L160.987 77.8692L161.126 84.1867C151.129 92.9908 135.971 93.4523 117.448 88.4762L117.384 87.8587Z" fill="#2F2E41"/>
<path d="M159.081 117.084C158.97 118.099 159.147 119.125 159.59 120.044C159.813 120.515 160.101 120.953 160.446 121.344C160.74 121.677 161.074 121.974 161.438 122.229C162.518 122.981 163.831 123.323 165.14 123.195C165.222 123.186 165.303 123.176 165.385 123.165C165.466 123.153 165.547 123.14 165.628 123.125C165.71 123.11 165.791 123.093 165.871 123.074C165.952 123.055 166.033 123.034 166.114 123.012L170.663 121.737L175.762 107.521L176.931 119.996L197.619 114.236L192.659 61.2966L157.398 64.7711L158.365 65.7023C161.578 68.8297 163.866 72.783 164.977 77.1271C166.08 81.5291 166.42 86.0876 165.984 90.6046C165.576 95.172 164.73 99.6897 163.458 104.095C162.351 107.997 161.021 111.831 159.473 115.579C159.272 116.06 159.141 116.567 159.081 117.084Z" fill="#2F2E41"/>
<path d="M163.783 283.994C163.177 283.994 162.578 283.859 162.031 283.598L64.3471 286.09C63.5975 285.735 62.9732 285.161 62.5567 284.444C62.1403 283.727 61.9512 282.9 62.0144 282.073C62.0776 281.246 62.3902 280.458 62.9108 279.812C63.4315 279.166 64.1358 278.694 64.9306 278.457L128.838 259.401C129.5 259.204 130.201 259.177 130.876 259.323L229.73 271.372C230.605 271.561 231.394 272.031 231.976 272.711C232.559 273.39 232.903 274.242 232.956 275.135C233.009 276.029 232.769 276.915 232.271 277.659C231.773 278.403 231.046 278.963 230.2 279.255L165.122 283.769C164.691 283.918 164.239 283.994 163.783 283.994Z" fill="#3F3D56"/>
<path d="M167.376 277.194C166.935 277.194 166.501 277.082 166.116 276.866L86.7824 280.573C86.3319 280.32 85.9679 279.938 85.7379 279.475C85.5078 279.013 85.4224 278.492 85.4927 277.98C85.5629 277.468 85.7857 276.989 86.1318 276.606C86.478 276.223 86.9316 275.953 87.4336 275.831L116.154 268.86C116.602 268.751 117.071 268.765 117.513 268.9L191.264 268.811C191.789 268.972 192.249 269.296 192.577 269.737C192.904 270.178 193.082 270.712 193.083 271.261C193.085 271.81 192.912 272.346 192.587 272.789C192.263 273.232 191.806 273.56 191.282 273.724L168.143 277.077C167.895 277.155 167.636 277.194 167.376 277.194Z" fill="#2F2E41"/>
<path d="M159.025 272.966C160.399 273.851 161.949 274.425 163.568 274.646C165.187 274.867 166.834 274.731 168.395 274.246C169.955 273.762 171.39 272.941 172.599 271.842C173.808 270.743 174.761 269.392 175.391 267.885L259.363 274.481L255.304 253.678L168.693 252.853C166.09 251.961 163.252 252.056 160.714 253.118C158.177 254.18 156.117 256.136 154.926 258.615C153.734 261.094 153.493 263.925 154.249 266.57C155.004 269.214 156.704 271.49 159.025 272.966Z" fill="#A0616A"/>
<path d="M208.624 137.484C208.624 137.484 221.309 127.336 236.531 145.603C246.796 157.921 266.599 232.39 268.241 263.249C268.344 265.201 268.044 267.154 267.357 268.985C266.671 270.816 265.614 272.486 264.252 273.889C262.891 275.293 261.254 276.4 259.444 277.141C257.635 277.882 255.692 278.242 253.737 278.197L208.979 277.418L203.974 249.283L239.311 249.701L208.624 137.484Z" fill="black"/>
<path d="M158.35 284.006C156.815 284.005 155.295 283.697 153.88 283.101L63.3391 285.167C60.9496 284.17 58.966 282.397 57.7091 280.133C56.4522 277.87 55.9954 275.249 56.4126 272.694L53.0483 193.179C53.4945 190.339 54.9894 187.769 57.2378 185.977C59.4863 184.185 62.3248 183.302 65.1929 183.501L149.25 186.987C150.863 187.093 152.437 187.537 153.868 188.29C155.299 189.043 156.555 190.088 157.556 191.358C158.557 192.628 159.28 194.094 159.678 195.661C160.076 197.228 160.14 198.862 159.866 200.455L169.714 274.418C169.251 277.098 167.857 279.528 165.779 281.282C163.7 283.036 161.07 284 158.35 284.006Z" fill="#3F3D56"/>
<path d="M89.5989 47.274L51.8131 47.1675C50.8002 47.1663 49.8282 47.5667 49.1101 48.281C48.392 48.9953 47.9864 49.9652 47.9822 50.978L47.8452 101.012C47.8431 102.024 48.2427 102.995 48.9562 103.713C49.6698 104.43 50.6389 104.835 51.6507 104.838L72.6112 104.899L89.4416 104.945C90.4542 104.947 91.426 104.546 92.1435 103.832C92.8609 103.117 93.2652 102.147 93.2673 101.134L93.2775 98.1761L93.4094 51.1049C93.4115 50.0918 93.0113 49.1193 92.2968 48.401C91.5823 47.6827 90.612 47.2774 89.5989 47.274Z" fill="#E6E6E6"/>
<path d="M86.9347 50.2627L54.4614 50.1714C53.5131 50.1702 52.603 50.545 51.9306 51.2136C51.2582 51.8822 50.8783 52.7901 50.8741 53.7384L50.7827 85.9073C50.7764 90.1319 52.4459 94.1866 55.4251 97.1819C58.4042 100.177 62.4498 101.869 66.6744 101.885L72.8443 101.9L86.7927 101.941C87.7412 101.943 88.6518 101.569 89.3244 100.9C89.997 100.231 90.3766 99.3226 90.38 98.3741L90.3901 95.1369L90.5017 53.85C90.5038 52.9015 90.1293 51.9909 89.4605 51.3183C88.7917 50.6457 87.8833 50.266 86.9347 50.2627Z" fill="white"/>
<path d="M83.287 72.243H57.9679C57.7683 72.243 57.5707 72.2823 57.3863 72.3587C57.202 72.4351 57.0344 72.547 56.8933 72.6881C56.7522 72.8292 56.6403 72.9968 56.5639 73.1811C56.4875 73.3655 56.4482 73.5631 56.4482 73.7627C56.4482 73.9623 56.4875 74.1599 56.5639 74.3442C56.6403 74.5286 56.7522 74.6961 56.8933 74.8373C57.0344 74.9784 57.202 75.0903 57.3863 75.1667C57.5707 75.243 57.7683 75.2823 57.9679 75.2823H83.287C83.69 75.2823 84.0765 75.1222 84.3615 74.8373C84.6465 74.5523 84.8066 74.1657 84.8066 73.7627C84.8066 73.3597 84.6465 72.9731 84.3615 72.6881C84.0765 72.4031 83.69 72.243 83.287 72.243Z" fill="black"/>
<path d="M63.534 63.9116H57.9679C57.5649 63.9116 57.1783 64.0717 56.8933 64.3567C56.6084 64.6417 56.4482 65.0282 56.4482 65.4313C56.4482 65.8343 56.6084 66.2208 56.8933 66.5058C57.1783 66.7908 57.5649 66.9509 57.9679 66.9509H63.534C63.9371 66.9509 64.3236 66.7908 64.6086 66.5058C64.8936 66.2208 65.0537 65.8343 65.0537 65.4313C65.0537 65.0282 64.8936 64.6417 64.6086 64.3567C64.3236 64.0717 63.9371 63.9116 63.534 63.9116Z" fill="black"/>
<path d="M83.287 85.6029H57.9679C57.5649 85.6029 57.1783 85.763 56.8933 86.048C56.6083 86.333 56.4482 86.7195 56.4482 87.1226C56.4482 87.5256 56.6083 87.9121 56.8933 88.1971C57.1783 88.4821 57.5649 88.6422 57.9679 88.6422H83.287C83.69 88.6422 84.0765 88.4821 84.3615 88.1971C84.6465 87.9121 84.8066 87.5256 84.8066 87.1226C84.8066 86.7195 84.6465 86.333 84.3615 86.048C84.0765 85.763 83.69 85.6029 83.287 85.6029Z" fill="black"/>
<path d="M83.2869 78.9255H57.9678C57.5654 78.9255 57.1795 79.0854 56.895 79.3699C56.6105 79.6544 56.4507 80.0403 56.4507 80.4426C56.4507 80.845 56.6105 81.2309 56.895 81.5154C57.1795 81.7999 57.5654 81.9598 57.9678 81.9598H83.2869C83.6892 81.9598 84.0751 81.7999 84.3596 81.5154C84.6442 81.2309 84.804 80.845 84.804 80.4426C84.804 80.0403 84.6442 79.6544 84.3596 79.3699C84.0751 79.0854 83.6892 78.9255 83.2869 78.9255Z" fill="black"/>
<path d="M78.3667 69.2851C76.5888 69.2851 74.8508 68.7579 73.3725 67.7702C71.8943 66.7824 70.7421 65.3785 70.0617 63.7359C69.3813 62.0934 69.2033 60.2859 69.5502 58.5422C69.897 56.7984 70.7532 55.1967 72.0103 53.9395C73.2675 52.6824 74.8692 51.8262 76.613 51.4794C78.3567 51.1325 80.1641 51.3105 81.8067 51.9909C83.4493 52.6713 84.8532 53.8235 85.841 55.3017C86.8287 56.78 87.3559 58.518 87.3559 60.2959C87.3532 62.6792 86.4053 64.964 84.7201 66.6492C83.0348 68.3345 80.75 69.2824 78.3667 69.2851ZM78.3667 51.9313C76.7123 51.9313 75.0951 52.4219 73.7196 53.341C72.344 54.2601 71.2719 55.5665 70.6388 57.0949C70.0057 58.6233 69.8401 60.3051 70.1628 61.9277C70.4856 63.5503 71.2822 65.0407 72.452 66.2105C73.6218 67.3803 75.1122 68.177 76.7348 68.4997C78.3574 68.8225 80.0392 68.6568 81.5676 68.0237C83.096 67.3906 84.4024 66.3185 85.3215 64.943C86.2406 63.5674 86.7312 61.9502 86.7312 60.2959C86.7287 58.0783 85.8466 55.9522 84.2785 54.3841C82.7104 52.8159 80.5843 51.9339 78.3667 51.9313Z" fill="black"/>
<path d="M82.1419 63.7778C81.521 60.5721 80.2278 57.5344 78.3475 54.8648C78.3051 54.7956 78.2456 54.7385 78.1748 54.6988C78.104 54.6591 78.0241 54.6383 77.943 54.6383C77.8618 54.6383 77.782 54.6591 77.7111 54.6988C77.6403 54.7385 77.5808 54.7956 77.5384 54.8648C75.9008 57.7291 74.8541 60.8926 74.4601 64.1683C74.3873 64.7655 75.325 64.7603 75.3971 64.1683C75.5288 63.1067 75.734 62.0556 76.0114 61.0225C76.0473 61.0154 76.0824 61.0046 76.1161 60.9904C77.3621 60.3648 78.7697 60.1356 80.1498 60.3335C80.1618 60.3353 80.1734 60.3327 80.1854 60.3339C80.6411 61.5326 80.9934 62.7681 81.2383 64.0269C81.3526 64.6184 82.2559 64.368 82.1419 63.7778ZM76.3487 59.8733C76.7788 58.539 77.3263 57.2455 77.9849 56.0079C78.682 57.0729 79.2872 58.1952 79.7942 59.3627C78.622 59.2746 77.4449 59.449 76.3487 59.8733Z" fill="black"/>
</g>
<defs>
<clipPath id="clip0_51_2">
<rect width="343" height="343" fill="white"/>
</clipPath>
</defs>
</svg>
