<svg width="373" height="419" viewBox="0 0 373 419" fill="none" xmlns="http://www.w3.org/2000/svg">
<g clip-path="url(#clip0_51_27)">
<path d="M194.032 332.553L181.858 331.84L183.535 371.64L191.784 372.124L194.032 332.553Z" fill="#A0616A"/>
<path d="M182.455 359.057L186.685 361.102V363.832C186.685 363.832 187.699 360.67 193.171 359.968L193.83 362.613C193.83 362.613 195.958 365.205 195.603 369.902L194.235 382.481L190.107 382.389L189.423 373.639C189.423 373.639 188.281 371.656 183.063 381.104C183.063 381.104 181.139 384.227 172.198 381.055C170.969 380.619 170.113 379.4 170.127 378.02C170.134 377.258 170.412 376.554 171.308 376.299C173.588 375.651 175.817 376.461 177.286 374.517C178.756 372.574 182.455 359.057 182.455 359.057Z" fill="#2F2E41"/>
<path d="M163.555 369.072L151.381 368.359L153.058 408.159L161.307 408.643L163.555 369.072Z" fill="#A0616A"/>
<path d="M151.978 395.577L156.209 397.621V400.351C156.209 400.351 157.222 397.19 162.694 396.488L163.353 399.133C163.353 399.133 165.481 401.724 165.126 406.421L163.758 419L159.63 418.908L158.946 410.159C158.946 410.159 157.805 408.176 152.586 417.623C152.586 417.623 150.663 420.746 141.721 417.575C140.492 417.139 139.637 415.919 139.65 414.539C139.657 413.778 139.935 413.073 140.831 412.819C143.111 412.171 145.341 412.981 146.81 411.037C148.279 409.094 151.978 395.577 151.978 395.577Z" fill="#2F2E41"/>
<path d="M316.326 250.141C315.786 249.171 313.45 250.21 313.02 249.329C312.592 248.451 314.763 247.114 316.003 244.06C316.227 243.509 317.637 240.038 316.593 238.967C314.615 236.937 305.564 245.315 302.397 242.573C301.702 241.971 301.216 240.77 299.112 238.82C298.275 238.044 297.769 237.694 297.279 237.824C296.584 238.009 296.529 239 295.784 240.949C294.666 243.871 294.005 243.695 293.354 246.027C292.871 247.757 292.981 248.764 292.412 248.96C291.607 249.237 290.866 247.401 289.846 247.566C288.805 247.733 288.176 249.871 287.977 251.471C287.604 254.475 288.639 256.457 289.213 258.541C289.836 260.805 290.206 264.249 288.766 269.125L274.515 311.91C277.661 303.13 286.771 279.064 290.599 270.121C291.704 267.539 292.925 264.92 295.43 263.887C297.842 262.892 301.155 263.486 305.378 262.402C305.872 262.275 307.24 261.904 307.413 261.046C307.555 260.337 306.75 259.941 306.874 259.277C307.04 258.386 308.623 258.375 310.568 257.348C311.94 256.623 312.795 255.761 313.53 255.019C313.752 254.796 317.046 251.433 316.326 250.141Z" fill="#F2F2F2"/>
<path d="M260.256 272.665C259.653 272.667 259.457 274.189 258.927 274.159C258.4 274.13 258.41 272.609 257.361 271.079C257.172 270.803 255.98 269.064 255.185 269.301C253.679 269.75 254.927 276.9 252.75 277.766C252.273 277.956 251.579 277.863 250.074 278.401C249.475 278.614 249.167 278.778 249.086 279.072C248.971 279.489 249.411 279.803 250.094 280.755C251.118 282.183 250.846 282.478 251.732 283.491C252.39 284.243 252.885 284.476 252.811 284.83C252.707 285.331 251.647 285.189 251.429 285.77C251.206 286.362 252.009 287.308 252.689 287.874C253.964 288.936 255.176 288.966 256.302 289.267C257.525 289.595 259.218 290.395 261.048 292.555L276.644 312.353C273.508 308.174 265.051 296.466 262.036 291.884C261.165 290.561 260.311 289.167 260.558 287.559C260.796 286.01 262.025 284.449 262.744 281.928C262.828 281.633 263.052 280.81 262.707 280.473C262.421 280.194 262.007 280.5 261.737 280.244C261.374 279.9 261.826 279.069 261.914 277.755C261.976 276.829 261.825 276.133 261.696 275.535C261.657 275.354 261.058 272.661 260.256 272.665Z" fill="#F2F2F2"/>
<path d="M272.283 275.541L271.919 272.087L272.085 271.825C272.853 270.614 273.245 269.431 273.249 268.308C273.25 268.13 273.242 267.951 273.235 267.77C273.203 267.049 273.164 266.153 273.602 265.109C273.848 264.527 274.539 263.179 275.577 263.346C275.856 263.387 276.068 263.524 276.228 263.684C276.251 263.644 276.276 263.604 276.302 263.561C276.625 263.035 276.881 262.81 277.127 262.593C277.317 262.426 277.513 262.255 277.819 261.848C277.954 261.669 278.059 261.512 278.147 261.381C278.416 260.982 278.767 260.506 279.385 260.515C280.046 260.548 280.392 261.13 280.621 261.516C281.03 262.203 281.216 262.698 281.339 263.027C281.384 263.147 281.434 263.282 281.46 263.324C281.673 263.658 283.404 263.346 284.056 263.232C285.521 262.972 286.788 262.747 287.31 263.731C287.684 264.435 287.406 265.366 286.459 266.572C286.164 266.947 285.85 267.232 285.571 267.456C285.802 267.603 286.009 267.828 286.093 268.182C286.29 269.019 285.615 269.858 284.086 270.679C283.706 270.884 283.195 271.158 282.479 271.289C282.141 271.351 281.838 271.366 281.578 271.374C281.572 271.535 281.537 271.708 281.445 271.886C281.177 272.412 280.618 272.662 279.776 272.602C278.849 272.55 278.086 272.362 277.412 272.197C276.824 272.053 276.318 271.932 275.92 271.96C275.183 272.023 274.615 272.652 273.948 273.468L272.283 275.541Z" fill="#F2F2F2"/>
<path d="M273.968 254.972L270.923 256.222L270.644 256.118C269.349 255.634 268.176 255.53 267.156 255.81C266.994 255.855 266.834 255.908 266.671 255.962C266.024 256.177 265.221 256.445 264.162 256.258C263.571 256.152 262.172 255.782 262.06 254.67C262.027 254.372 262.098 254.119 262.203 253.913C262.16 253.899 262.118 253.884 262.072 253.869C261.513 253.669 261.243 253.462 260.984 253.263C260.784 253.11 260.579 252.952 260.131 252.739C259.935 252.645 259.766 252.577 259.624 252.519C259.194 252.344 258.674 252.103 258.524 251.463C258.387 250.774 258.828 250.27 259.119 249.935C259.64 249.339 260.042 249.022 260.309 248.812C260.407 248.736 260.517 248.649 260.548 248.612C260.797 248.308 260.075 246.603 259.807 245.96C259.199 244.516 258.673 243.267 259.434 242.48C259.978 241.915 260.894 241.966 262.229 242.636C262.644 242.845 262.983 243.096 263.257 243.327C263.331 243.051 263.483 242.781 263.783 242.605C264.493 242.19 265.426 242.673 266.559 244.04C266.842 244.38 267.22 244.837 267.521 245.542C267.663 245.874 267.753 246.183 267.827 246.449C267.974 246.414 268.14 246.406 268.325 246.455C268.871 246.599 269.24 247.111 269.399 247.995C269.587 248.963 269.609 249.798 269.63 250.533C269.649 251.176 269.667 251.728 269.794 252.131C270.038 252.875 270.753 253.301 271.663 253.782L273.968 254.972Z" fill="#F2F2F2"/>
<path d="M272.283 244.794L271.919 241.339L272.085 241.077C272.853 239.866 273.245 238.684 273.249 237.561C273.25 237.383 273.242 237.204 273.235 237.022C273.203 236.302 273.164 235.406 273.602 234.362C273.848 233.779 274.539 232.431 275.577 232.598C275.856 232.64 276.068 232.777 276.228 232.937C276.251 232.897 276.276 232.857 276.302 232.813C276.625 232.288 276.881 232.063 277.127 231.846C277.317 231.679 277.513 231.507 277.819 231.1C277.954 230.922 278.059 230.765 278.147 230.633C278.416 230.235 278.767 229.759 279.385 229.767C280.046 229.801 280.392 230.383 280.621 230.768C281.03 231.456 281.216 231.951 281.339 232.28C281.384 232.4 281.434 232.535 281.46 232.577C281.673 232.91 283.404 232.598 284.056 232.485C285.521 232.225 286.788 231.999 287.31 232.984C287.684 233.688 287.406 234.618 286.459 235.824C286.164 236.2 285.85 236.485 285.571 236.709C285.802 236.855 286.009 237.081 286.093 237.434C286.29 238.272 285.615 239.111 284.086 239.931C283.706 240.137 283.195 240.41 282.479 240.542C282.141 240.604 281.838 240.619 281.578 240.627C281.572 240.787 281.537 240.961 281.445 241.139C281.177 241.665 280.618 241.915 279.776 241.855C278.849 241.803 278.086 241.615 277.412 241.449C276.824 241.306 276.318 241.184 275.92 241.213C275.183 241.276 274.615 241.905 273.948 242.721L272.283 244.794Z" fill="#F2F2F2"/>
<path d="M275.6 311.853L274.92 311.4L274.128 311.496C274.116 311.418 274.073 311.238 274.008 310.956C273.653 309.411 272.572 304.71 271.67 297.307C271.041 292.139 270.685 286.826 270.611 281.513C270.538 276.192 270.774 272.163 270.963 268.926C271.107 266.483 271.28 264.158 271.451 261.893C271.905 255.841 272.333 250.124 272.015 243.795C271.944 242.382 271.796 239.441 270.184 236.312C269.248 234.497 267.96 232.885 266.354 231.524L267.352 230.186C269.125 231.691 270.551 233.476 271.59 235.491C273.378 238.961 273.539 242.165 273.616 243.705C273.94 250.146 273.508 255.917 273.049 262.028C272.88 264.285 272.706 266.6 272.563 269.032C272.376 272.24 272.142 276.234 272.214 281.487C272.286 286.736 272.639 291.984 273.259 297.087C274.15 304.397 275.216 309.028 275.566 310.549C275.752 311.361 275.791 311.531 275.6 311.853Z" fill="#F2F2F2"/>
<path d="M263.413 234.238C263.348 234.238 263.281 234.236 263.214 234.231C261.849 234.153 260.584 233.282 259.456 231.644C258.926 230.873 258.656 229.994 258.115 228.241C258.032 227.971 257.625 226.6 257.377 224.713C257.215 223.48 257.236 222.965 257.465 222.509C257.719 222.002 258.131 221.649 258.594 221.41C258.574 221.247 258.591 221.078 258.657 220.906C258.93 220.194 259.657 220.287 260.05 220.333C260.249 220.359 260.497 220.394 260.764 220.379C261.186 220.358 261.412 220.224 261.755 220.024C262.083 219.832 262.49 219.594 263.096 219.462C264.289 219.196 265.288 219.557 265.618 219.675C267.352 220.291 268.206 221.727 269.196 223.39C269.393 223.724 270.07 224.938 270.517 226.603C270.84 227.804 270.794 228.338 270.697 228.735C270.5 229.551 270.034 230.018 268.852 231.049C267.616 232.128 266.996 232.668 266.464 232.997C265.225 233.759 264.447 234.238 263.413 234.238Z" fill="#F2F2F2"/>
<path d="M93.4122 307.814L100.999 307.813L104.608 276.632L93.4106 276.633L93.4122 307.814Z" fill="#FFB6B6"/>
<path d="M119.406 307.63C119.642 308.054 119.767 309.422 119.767 309.915C119.767 311.431 118.614 312.659 117.192 312.659H93.6961C92.726 312.659 91.9394 311.821 91.9394 310.787V309.745C91.9394 309.745 90.7771 306.612 93.1701 302.751C93.1701 302.751 96.1443 305.775 100.588 301.039L101.899 298.51L111.386 305.902L116.644 306.592C117.794 306.743 118.814 306.568 119.406 307.63Z" fill="#2F2E41"/>
<path d="M64.6231 307.814L72.21 307.813L75.8191 276.632L64.6216 276.633L64.6231 307.814Z" fill="#FFB6B6"/>
<path d="M90.6169 307.63C90.8531 308.054 90.9777 309.422 90.9777 309.915C90.9777 311.431 89.8249 312.659 88.4027 312.659H64.9071C63.9369 312.659 63.1504 311.821 63.1504 310.787V309.745C63.1504 309.745 61.9881 306.612 64.3811 302.751C64.3811 302.751 67.3552 305.775 71.7994 301.039L73.1099 298.51L82.5965 305.902L87.8547 306.592C89.0051 306.743 90.0251 306.568 90.6169 307.63Z" fill="#2F2E41"/>
<path d="M59.0362 140.322L49.4399 163.498L61.5952 290.285L76.6293 291.307L82.707 179.176L88.4647 291.648L106.378 289.603L110.627 146.824L59.0362 140.322Z" fill="#2F2E41"/>
<path d="M96.8443 47.9578L77.5889 44.2087L73.7 48.3523L53.9181 57.1601L57.1169 123.28C57.1169 123.28 50.7194 127.821 53.9181 134.071C57.1169 140.322 56.4771 147.82 56.4771 147.82H110.627L108.297 110.329L114.694 62.6133L99.7459 55.0726L96.8443 47.9578Z" fill="#CCCCCC"/>
<path d="M82.8878 124.99C88.3582 126.382 93.4663 124.502 94.2968 120.793C95.1274 117.083 91.3661 112.949 85.8935 111.558C83.7146 110.97 81.4352 110.947 79.2462 111.49L55.9977 105.906L53.771 117.587L76.9263 121.851C78.6497 123.39 80.6939 124.466 82.8878 124.99Z" fill="#FFB6B6"/>
<path d="M57.7565 60.5684L53.918 57.1602C53.918 57.1602 46.241 61.2501 44.9615 64.6583C43.682 68.0666 36.005 100.786 36.005 100.786C36.005 100.786 34.4988 118.717 38.4506 120.999C42.4024 123.28 67.3527 121.917 67.3527 121.917L69.272 108.284L59.036 104.194L57.7565 60.5684Z" fill="#CCCCCC"/>
<path d="M88.4253 42.2743C97.7648 42.2743 105.336 34.2072 105.336 24.256C105.336 14.3048 97.7648 6.23779 88.4253 6.23779C79.0858 6.23779 71.5146 14.3048 71.5146 24.256C71.5146 34.2072 79.0858 42.2743 88.4253 42.2743Z" fill="#FFB6B6"/>
<path d="M76.2966 40.2512C74.2707 40.4441 70.9636 34.9222 71.111 29.5744C71.2058 26.1341 68.4026 25.4577 68.1943 21.0209C68.073 18.4357 71.7999 17.6296 72.0559 15.5561C72.5198 11.7991 74.7947 9.27099 75.0787 8.96366C77.5303 6.31072 79.2606 7.17316 82.1436 4.09847C83.8794 2.24736 83.4346 1.74022 84.6036 0.919148C87.9774 -1.4505 94.0395 1.11775 97.6647 4.57728C98.9192 5.77442 103.595 4.46602 105.638 7.84661C108.044 11.8296 107.486 19.9523 106.454 21.0243C105.827 21.6756 104.395 20.0844 100.514 19.0632C96.9213 18.1178 100.311 22.7934 96.157 22.0087C91.2453 21.0809 90.2837 19.4887 88.4442 20.4437C86.4997 21.4532 84.9803 24.579 85.4215 27.0361C85.6404 28.2555 86.2748 28.9354 85.917 29.5554C85.2638 30.6874 84.5143 29.5772 83.6765 30.7133C82.702 32.0347 85.1236 35.4245 84.6676 35.7519C84.5757 35.8178 84.2976 35.8092 81.6837 33.1308C80.64 32.0613 80.334 31.4045 80.1298 31.5053C79.7993 31.6685 77.6326 33.8191 78.4599 35.5175C79.7474 38.1605 78.0997 38.2428 78.4599 40.0221C78.8316 41.8576 77.584 40.1287 76.2966 40.2512Z" fill="#2F2E41"/>
<path d="M72.7909 94.9917L70.2319 97.0367L83.6667 116.805L86.2257 116.123L72.7909 94.9917Z" fill="#3F3D56"/>
<path d="M107.337 113.087V147.589C107.337 150.64 105.008 153.122 102.144 153.122H69.7634C66.8999 153.122 64.5703 150.64 64.5703 147.589V113.087C64.5703 110.036 66.8999 107.554 69.7634 107.554H102.144C105.008 107.554 107.337 110.036 107.337 113.087Z" fill="white"/>
<path d="M90.2641 121.645H79.8105C79.547 121.645 79.3325 121.417 79.3325 121.136C79.3325 120.855 79.547 120.627 79.8105 120.627H90.2641C90.5277 120.627 90.742 120.855 90.742 121.136C90.742 121.417 90.5277 121.645 90.2641 121.645Z" fill="#3F3D56"/>
<path d="M90.2641 132.505H79.8105C79.547 132.505 79.3325 132.276 79.3325 131.995C79.3325 131.714 79.547 131.486 79.8105 131.486H90.2641C90.5277 131.486 90.742 131.714 90.742 131.995C90.742 132.276 90.5277 132.505 90.2641 132.505Z" fill="#3F3D56"/>
<path d="M85.0713 147.477H74.6176C74.3541 147.477 74.1396 147.248 74.1396 146.967C74.1396 146.687 74.3541 146.458 74.6176 146.458H85.0713C85.3348 146.458 85.5491 146.687 85.5491 146.967C85.5491 147.248 85.3348 147.477 85.0713 147.477Z" fill="#3F3D56"/>
<path d="M95.8738 127.079H74.2011C73.9376 127.079 73.7231 126.85 73.7231 126.569C73.7231 126.288 73.9376 126.06 74.2011 126.06H95.8738C96.1373 126.06 96.3517 126.288 96.3517 126.569C96.3517 126.85 96.1373 127.079 95.8738 127.079Z" fill="#3F3D56"/>
<path d="M94.2732 127.795C89.2873 130.568 86.5885 135.557 88.2452 138.937C89.9019 142.318 95.286 142.81 100.273 140.035C102.28 138.956 104.015 137.381 105.332 135.441L126.319 123.408L120.809 113.035L100.705 125.998C98.4575 126.041 96.2518 126.657 94.2732 127.795Z" fill="#FFB6B6"/>
<path d="M110.856 63.2952C110.856 63.2952 116.614 59.2052 120.452 70.1117C123.48 78.7159 129.097 104.078 131.333 114.402C131.926 117.142 131.067 120.005 129.094 121.874L126.53 124.303L114.055 134.187L105.549 120.999L115.879 114.363L104.098 87.1316L110.856 63.2952Z" fill="#CCCCCC"/>
<path d="M373 312.44C373 312.756 372.759 313.012 372.463 313.012H0V311.867H372.463C372.759 311.867 373 312.124 373 312.44Z" fill="#E6E6E6"/>
<path d="M171.181 309.333C171.316 307.895 171.126 306.443 170.626 305.1L172.733 290.162L166.033 289.301L164.617 304.547C163.909 305.779 163.489 307.174 163.391 308.615C163.099 312.219 164.606 315.299 166.757 315.497C168.909 315.695 170.889 312.935 171.181 309.333Z" fill="#A0616A"/>
<path d="M190.573 221.081L185.043 252.037L178.185 268.276L174.1 299.589L163.605 302.973L166.896 263.268C166.896 263.268 177.497 226.376 180.338 222.619C183.18 218.862 190.573 221.081 190.573 221.081Z" fill="#19191A"/>
<path d="M195.899 191.524L189.24 214.669L212.147 222.151L218.806 199.006L195.899 191.524Z" fill="#2F2E41"/>
<path d="M207.626 207.683C214.078 207.683 219.308 202.11 219.308 195.236C219.308 188.361 214.078 182.789 207.626 182.789C201.174 182.789 195.944 188.361 195.944 195.236C195.944 202.11 201.174 207.683 207.626 207.683Z" fill="#A0616A"/>
<path d="M218.451 177.714C214.854 175.858 208.051 176.728 205.619 177.014C203.446 177.269 201.939 178.612 200.458 179.932C197.096 182.929 195.622 186.58 195.151 187.866C192.928 193.947 195.117 196.505 192.793 199.066C190.303 201.809 186.812 199.951 185.295 202.601C183.917 205.009 186.472 207.111 185.485 210.95C184.347 215.379 179.974 216.353 180.42 218.042C180.916 219.917 186.825 220.707 191.537 218.451C192.172 218.146 197.758 215.383 198.029 210.904C198.202 208.03 195.991 207.734 195.379 203.593C194.954 200.714 195.641 198.269 196.737 194.369C197.5 191.651 197.882 190.292 198.706 189.027C199.103 188.417 202.843 182.868 208.389 183.904C213.278 184.817 216.564 190.285 215.931 193.733C215.557 195.769 213.778 197.302 214.478 198.782C214.994 199.874 216.319 199.797 216.484 200.819C216.64 201.778 215.621 202.76 214.847 203.507C213.869 204.45 212.992 204.899 212.662 205.095C210.309 206.492 209.437 210.66 209.451 213.253C209.47 217.124 211.485 221.886 215.565 223.537C220.148 225.391 225.738 222.674 225.949 220.483C226.072 219.211 224.314 218.813 224.032 216.635C223.714 214.177 225.731 212.979 225.09 211.456C224.509 210.075 225.356 212.045 223.752 210.098C223.556 209.86 222.522 208.562 222.504 206.928C222.48 204.8 224.195 203.396 225.142 202.265C228.685 198.035 229.244 190.051 225.961 186.151C224.097 183.938 225.251 181.223 218.451 177.714Z" fill="#2F2E41"/>
<path d="M220.164 189.782C221.22 187.231 218.426 183.985 218.062 183.571C215.337 180.48 211.423 180.368 209.494 180.313C207.806 180.264 204.186 180.16 201.448 182.749C199.967 184.148 198.585 186.486 199.205 187.54C199.585 188.186 200.683 188.217 202.881 188.281C204.857 188.338 205.572 188.06 206.678 188.6C207.494 188.999 207.696 189.439 208.41 190.087C210.344 191.838 212.72 192.105 213.424 192.184C215.084 192.371 219.124 192.294 220.164 189.782Z" fill="#2F2E41"/>
<path d="M192.282 218.341L182.376 221.589L183.138 231.332L180.09 291.416L231.146 293.04L231.798 287.448L226.574 267.311L228.86 227.273L214.381 219.153L210.571 211.034L196.855 210.222L192.282 218.341Z" fill="#19191A"/>
<path d="M214.762 281.267L179.709 292.634C179.709 292.634 158.538 299.089 147.107 305.585C135.677 312.08 137.035 317.975 137.035 317.975L151.514 386.99L165.23 387.802L163.37 324.317L178.185 322.165L180.471 345.411L192.663 348.658L204.856 304.002C205.732 309.6 210.596 313.464 215.88 312.751C220.294 312.156 225.68 311.244 230.765 309.89C242.196 306.847 230.765 285.327 230.765 285.327L214.762 281.267Z" fill="#2F2E41"/>
<path d="M178.566 315.775C178.566 315.775 180.852 296.288 184.662 274.365C188.472 252.443 202.189 258.127 202.189 258.127L226.574 285.733L206.761 299.536L178.566 315.775Z" fill="#2F2E41"/>
<path d="M199.247 294.721C200.248 293.745 201.015 292.528 201.484 291.172L212.402 281.537L207.948 276.135L197.352 286.491C196.053 286.906 194.866 287.647 193.891 288.651C191.419 291.129 190.614 294.495 192.094 296.172C193.573 297.848 196.776 297.198 199.247 294.721Z" fill="#A0616A"/>
<path d="M208.315 241.069L217.036 259.171L202.064 279.743L209.6 288.149L228.334 271.319L237.122 262.5C240.309 259.302 238.651 255.085 237.071 250.735C230.765 233.362 232.29 226.867 226.193 225.243C221.234 223.922 208.315 241.069 208.315 241.069Z" fill="#19191A"/>
<path d="M168.366 275.14L169.791 270.887L196.308 275.747L218.833 263.595L219.973 266.937L195.452 282.431L168.366 275.14Z" fill="#E6E6E6"/>
<path d="M221.114 264.811L195.738 278.481L166.733 274.016L169.506 286.988L194.027 291.545L217.208 279.709L221.114 264.811Z" fill="#3F3D56"/>
<path d="M66.9248 117.451L68.3504 113.197L94.8669 118.058L117.392 105.906L118.532 109.248L94.0115 124.742L66.9248 117.451Z" fill="#E6E6E6"/>
<path d="M119.673 107.121L94.2968 120.792L65.2925 116.326L68.0654 129.299L92.586 133.856L115.767 122.02L119.673 107.121Z" fill="#3F3D56"/>
</g>
<defs>
<clipPath id="clip0_51_27">
<rect width="373" height="419" fill="white"/>
</clipPath>
</defs>
</svg>
