<svg width="686" height="462" viewBox="0 0 686 462" fill="none" xmlns="http://www.w3.org/2000/svg">
<g clip-path="url(#clip0_41_26)">
<path d="M632.936 223.088H76.6658C69.2096 223.088 63.1436 216.85 63.1436 209.182V13.9056C63.1436 6.238 69.2096 0 76.6658 0H632.936C640.392 0 646.459 6.238 646.459 13.9056V209.182C646.459 216.85 640.392 223.088 632.936 223.088ZM76.6658 1.65785C70.0987 1.65785 64.7557 7.15233 64.7557 13.9056V209.182C64.7557 215.936 70.0987 221.43 76.6658 221.43H632.936C639.503 221.43 644.846 215.936 644.846 209.182V13.9056C644.846 7.15233 639.503 1.65785 632.936 1.65785H76.6658Z" fill="#3F3D56"/>
<path d="M686 456.372H0V457.767H686V456.372Z" fill="#E6E6E6"/>
<path d="M686 385.084H0V386.479H686V385.084Z" fill="#E6E6E6"/>
<path d="M312.629 230.27C313.122 236.636 316.715 241.535 320.655 241.212C324.595 240.889 327.388 235.466 326.894 229.098C326.731 226.551 325.977 224.082 324.696 221.896L322.277 194.95L310.005 196.387L313.692 222.799C312.763 225.166 312.398 227.728 312.629 230.27Z" fill="#FFB6B6"/>
<path d="M297.969 104.555C297.969 104.555 309.441 98.3101 315.258 107.643C321.075 116.975 325.09 217.907 325.09 217.907L308.967 219.678L305.91 148.553L297.969 104.555Z" fill="#E6E6E6"/>
<path d="M274.158 379.818L283.498 379.817L287.942 342.769L274.156 342.77L274.158 379.818Z" fill="#FFB6B6"/>
<path d="M306.159 379.6C306.45 380.104 306.603 381.73 306.603 382.315C306.603 384.116 305.184 385.575 303.433 385.575H274.507C273.313 385.575 272.345 384.58 272.345 383.351V382.113C272.345 382.113 270.914 378.391 273.86 373.803C273.86 373.803 277.521 377.395 282.992 371.769L284.606 368.763L296.285 377.547L302.758 378.366C304.175 378.546 305.43 378.338 306.159 379.6Z" fill="#2F2E41"/>
<path d="M328.21 378.228L337.259 375.85L332.647 338.823L319.291 342.332L328.21 378.228Z" fill="#FFB6B6"/>
<path d="M359.163 369.872C359.566 370.286 360.106 371.822 360.246 372.389C360.68 374.134 359.656 375.909 357.96 376.355L329.934 383.717C328.776 384.021 327.599 383.303 327.303 382.113L327.005 380.913C327.005 380.913 324.723 377.671 326.473 372.476C326.473 372.476 330.885 375.024 334.832 368.181L335.672 364.858L349.102 370.396L355.571 369.542C356.986 369.355 358.153 368.835 359.163 369.872Z" fill="#2F2E41"/>
<path d="M266.43 96.5909L265.987 93.286L271.251 80.0663L285.713 78.4138L288.836 97.3395L266.43 96.5909Z" fill="#FFB6B6"/>
<path opacity="0.1" d="M266.43 96.5909L265.987 93.286L271.251 80.0663L285.713 78.4138L288.836 97.3395L266.43 96.5909Z" fill="black"/>
<path d="M249.559 189.955L243.131 208.132L247.952 218.047L272.055 361.811H288.08L284.911 234.572L321.87 361.811H337.73L324.976 275.883L315.442 196.565L309.659 192.891L281.697 176.735L249.559 189.955Z" fill="#2F2E41"/>
<path d="M290.534 202.348L280.892 204.001L268.037 172.604H296.962L290.534 202.348Z" fill="#E6E6E6"/>
<path d="M309.817 194.086L290.534 202.348L284.106 187.476L280.893 204.001L247.147 192.83L251.968 172.604L247.147 106.506L264.165 94.8391L266.43 93.2859L287.32 94.9384L289.152 95.9629L301.783 103.201L304.996 157.732L309.817 194.086Z" fill="#2F2E41"/>
<path d="M289.153 95.9629L280.09 135.424L264.165 94.8391L266.431 93.2859L287.321 94.9384L289.153 95.9629Z" fill="#E6E6E6"/>
<path d="M273.662 93.2859L270.448 98.9777L273.662 100.875L272.055 135.526L278.483 144.512L284.91 131.231L280.09 100.875L281.697 93.2859H273.662Z" fill="#2F2E41"/>
<path d="M278.482 89.981C286.913 89.981 293.748 82.9526 293.748 74.2826C293.748 65.6126 286.913 58.5842 278.482 58.5842C270.051 58.5842 263.217 65.6126 263.217 74.2826C263.217 82.9526 270.051 89.981 278.482 89.981Z" fill="#FFB6B6"/>
<path d="M268.726 75.6597L272.025 77.14L273.464 68.258C273.464 68.258 279.222 65.2973 283.541 66.7777C287.859 68.258 295.057 66.7777 295.057 66.7777C295.057 66.7777 295.057 51.9744 284.98 51.9744C274.904 51.9744 264.827 53.4547 264.827 57.8957C264.827 62.3367 260.508 66.7777 260.508 66.7777C260.508 66.7777 254.75 75.6597 260.508 81.581C266.266 87.5023 269.146 87.5023 269.146 87.5023L268.726 75.6597Z" fill="#2F2E41"/>
<path d="M239.106 229.805C238.939 236.189 242.006 241.453 245.957 241.561C249.908 241.67 253.245 236.584 253.412 230.198C253.512 227.648 253.018 225.11 251.969 222.797L252.346 195.739L239.995 195.827L240.934 222.492C239.766 224.745 239.139 227.252 239.106 229.805Z" fill="#FFB6B6"/>
<path d="M254.387 103.17C254.387 103.17 243.942 99.8649 239.121 109.78C234.3 119.694 240.728 220.495 240.728 220.495H256.943L252.639 149.439L254.387 103.17Z" fill="#E6E6E6"/>
<path d="M655.065 290.96L616.114 278.698C615.253 278.427 614.349 278.328 613.451 278.407L416.041 295.684C413.226 295.93 412.519 299.834 415.058 301.107L421.382 304.275H421.213V455.928H427.172V307.175L446.99 317.104C448.506 317.863 450.198 318.174 451.876 317.999L453.985 317.78V455.928H459.943V317.161L612.63 301.301V455.928H618.589V300.682L643.913 298.052V455.928H649.871V297.433L654.491 296.953C657.735 296.616 658.182 291.941 655.065 290.96Z" fill="#3F3D56"/>
<path d="M473.35 295.083C477.074 295.083 532.19 288.19 532.19 288.19L540.383 299.679L483.032 311.168L473.35 295.083Z" fill="white"/>
<path d="M533.841 450.039L524.265 450.021L519.773 412.03L533.906 412.056L533.841 450.039Z" fill="#A0616A"/>
<path d="M501.033 449.757C500.734 450.273 500.574 451.939 500.573 452.54C500.57 454.386 502.023 455.885 503.818 455.888L533.473 455.94C534.697 455.942 535.691 454.923 535.694 453.664L535.696 452.394C535.696 452.394 537.169 448.581 534.157 443.872C534.157 443.872 530.397 447.549 524.797 441.771L523.148 438.686L511.16 447.67L504.522 448.498C503.069 448.68 501.782 448.465 501.033 449.757Z" fill="#2F2E41"/>
<path d="M585.235 432.372L577.68 438.232L552.104 411.054L563.254 402.405L585.235 432.372Z" fill="#A0616A"/>
<path d="M559.222 452.275C559.286 452.865 560.126 454.276 560.474 454.75C561.542 456.206 563.556 456.496 564.972 455.398L588.368 437.248C589.334 436.499 589.526 435.086 588.798 434.092L588.063 433.091C588.063 433.091 587.012 429.182 581.907 427.32C581.907 427.32 581.077 432.523 573.313 431.405L570.225 429.986L565.99 444.419L561.24 449.143C560.201 450.177 559.063 450.798 559.222 452.275Z" fill="#2F2E41"/>
<path d="M565.222 236.029C565.222 245.109 558.064 252.471 549.233 252.471C540.403 252.471 533.244 245.109 533.244 236.029C533.244 226.948 540.403 219.586 549.233 219.586C558.064 219.586 565.222 226.948 565.222 236.029Z" fill="#A0616A"/>
<path d="M563.716 330.83C563.716 330.83 504.847 327.404 501.514 334.257C498.182 341.11 519.529 435.248 519.529 435.248L538.574 431.143L529.283 365.097C529.283 365.097 578.408 378.476 585.072 362.485C591.737 346.494 589.818 340.539 589.818 340.539L563.716 330.83Z" fill="#2F2E41"/>
<path d="M578.799 319.327C578.799 319.327 521.145 332.036 519.695 339.552C518.244 347.068 563.047 432.045 563.047 432.045L580.357 422.906L554.407 361.74C554.407 361.74 605.224 361.278 607.538 344.044C609.851 326.809 606.469 321.589 606.469 321.589L578.799 319.327Z" fill="#2F2E41"/>
<path d="M585.375 254.872H557.676L538.724 286.855C538.724 286.855 534.281 307.523 538.724 309.753C543.167 311.984 543.167 335.97 543.167 335.97L589.818 340.539C589.818 340.539 596.482 268.579 594.261 261.726C592.039 254.872 585.375 254.872 585.375 254.872Z" fill="black"/>
<path d="M541.5 276.003L538.724 309.753L507.49 296.122L500.036 292.266C498.576 290.308 496.681 288.739 494.51 287.688C489.111 284.983 483.38 285.653 481.706 289.185C480.032 292.716 483.05 297.772 488.447 300.476C490.59 301.587 492.961 302.155 495.36 302.131L517.171 314.87L517.197 314.82L517.294 314.997L551.497 329.688L559.367 285.383L541.5 276.003Z" fill="#A0616A"/>
<path d="M538.169 238.31C538.169 238.31 521.508 240.594 528.172 225.745C528.172 225.745 527.156 217.696 532.107 217.152C537.058 216.608 543.723 207.47 543.723 207.47C543.723 207.47 559.002 199.474 566.913 207.47C574.823 215.465 598.149 262.297 598.149 262.297L582.599 279.43C582.599 279.43 573.25 254.157 562.374 257.085C551.498 260.012 541.501 268.741 541.501 268.741C541.501 268.741 530.464 263.061 535.427 258.11C540.39 253.159 538.169 238.31 538.169 238.31Z" fill="#2F2E41"/>
<path d="M560.383 263.439C560.383 263.439 552.608 253.159 547.054 261.154C541.501 269.15 537.058 279.43 537.058 279.43L559.272 287.426L560.383 263.439Z" fill="black"/>
<path d="M644.73 453.654L618.92 369.294L618.924 369.294H618.984L618.879 369.156L618.877 369.153L617.039 363.144L617.04 363.144C619.84 360.662 621.747 357.116 622.127 353.033L610.329 286.306C611.141 277.544 604.609 269.884 596.051 269.57L569.431 269.501C561.864 269.226 555.309 274.848 554.207 282.553L553.619 286.643L545.463 343.697C545.165 345.749 545.284 347.772 545.753 349.663L539.884 350.452L538.104 350.697L531.066 351.639L531.043 351.647L530.164 351.762H529.211V376.272H529.271V454.611C529.271 455.116 529.673 455.53 530.164 455.53C530.663 455.53 531.066 455.116 531.066 454.611V376.272H541.508L551.928 454.519C551.995 454.978 552.375 455.315 552.822 455.315C552.859 455.315 552.904 455.315 552.941 455.308C553.432 455.239 553.775 454.772 553.708 454.266L543.325 376.272H593.429C598.404 376.272 603.014 374.648 606.767 371.868L626.633 454.375C626.736 454.793 627.101 455.07 627.502 455.07C627.575 455.07 627.649 455.061 627.724 455.042C628.204 454.916 628.494 454.414 628.372 453.92L608.314 370.616C608.581 370.387 608.848 370.143 609.1 369.891L617.074 369.409L643.019 454.209C643.139 454.602 643.493 454.855 643.874 454.855C643.963 454.855 644.054 454.841 644.143 454.812C644.616 454.659 644.879 454.14 644.73 453.654ZM615.334 364.454C615.401 364.415 615.461 364.369 615.52 364.331L615.712 364.957L615.334 364.454Z" fill="#E6E6E6"/>
<path d="M138.295 310.661L155.665 299.302L162.727 303.682L138.295 332.552V310.661Z" fill="#FFB6B6"/>
<path d="M114.541 266.693C114.541 266.693 103.004 269.484 108.433 285.536C113.863 301.588 131.508 335.088 136.937 332.994C142.367 330.9 143.045 309.963 143.045 309.963C143.045 309.963 142.367 310.661 139.652 307.869C136.937 305.078 136.937 306.353 136.937 303.273C136.937 300.192 134.717 297.909 134.717 297.909L132.187 292.515C132.187 292.515 132.187 267.391 122.007 265.995C111.827 264.599 114.541 266.693 114.541 266.693Z" fill="#E6E6E6"/>
<path d="M168.444 302.931C172.95 298.298 174.346 292.222 171.563 289.36C168.78 286.498 162.872 287.935 158.366 292.568C153.861 297.201 152.464 303.277 155.247 306.139C158.03 309.001 163.938 307.565 168.444 302.931Z" fill="#FFB6B6"/>
<path d="M69.6035 359.166L81.4562 379.34L150.528 375.137L132.136 350.76L69.6035 359.166Z" fill="#E6E6E6"/>
<path d="M90.2426 453.522C89.8403 453.522 89.4898 453.217 89.4337 452.796L68.7938 297.781C68.7325 297.321 69.0454 296.897 69.4927 296.834C69.9397 296.767 70.352 297.092 70.4135 297.553L91.0534 452.568C91.1147 453.028 90.8018 453.452 90.3545 453.515C90.3168 453.52 90.2795 453.522 90.2426 453.522Z" fill="#E6E6E6"/>
<path d="M69.6036 453.719C69.1521 453.719 68.7861 453.343 68.7861 452.879V297.697C68.7861 297.232 69.1521 296.856 69.6036 296.856C70.055 296.856 70.421 297.232 70.421 297.697V452.879C70.421 453.343 70.055 453.719 69.6036 453.719Z" fill="#E6E6E6"/>
<path d="M173.212 453.103C172.865 453.103 172.542 452.873 172.433 452.514L123.592 292.875C123.456 292.433 123.695 291.961 124.126 291.821C124.557 291.682 125.016 291.928 125.151 292.371L173.992 452.009C174.128 452.452 173.888 452.924 173.458 453.064C173.376 453.09 173.293 453.103 173.212 453.103Z" fill="#E6E6E6"/>
<path d="M158.294 453.299C157.929 453.299 157.596 453.046 157.502 452.666L123.579 311.774C123.468 311.324 123.732 310.866 124.17 310.752C124.609 310.638 125.052 310.909 125.164 311.359L159.087 452.251C159.198 452.701 158.933 453.159 158.496 453.273C158.428 453.291 158.36 453.299 158.294 453.299Z" fill="#E6E6E6"/>
<path d="M69.6035 300.169L126.21 299.274L136.632 360.427H70.4209L69.6035 300.169Z" fill="#E6E6E6"/>
<path d="M156.594 390.09L142.328 415.918L158.892 419.668L165.798 401.298L156.594 390.09Z" fill="#FFB6B6"/>
<path d="M147.451 411.042C147.451 411.042 146.897 406.83 143.638 408.167C140.379 409.503 130.974 414.471 130.974 414.471C130.974 414.471 155.506 455.462 160.161 453.552C164.817 451.643 159.244 440.056 159.244 440.056L160.474 419.574L147.451 411.042Z" fill="#2F2E41"/>
<path d="M93.5031 339.973C93.5031 339.973 88.4131 364.051 104.022 372.426C119.632 380.801 172.907 360.212 172.907 360.212L148.475 397.858L165.442 404.878C165.442 404.878 204.126 352.535 201.412 344.16C198.697 335.786 180.373 335.088 180.373 335.088L138.974 337.181L128.115 333.692L93.5031 339.973Z" fill="#2F2E41"/>
<path d="M135.489 401.553L113.062 420.273L127.163 429.964L140.095 415.437L135.489 401.553Z" fill="#FFB6B6"/>
<path d="M119.559 417.648C119.559 417.648 120.534 413.517 117.025 413.543C113.517 413.568 102.998 414.676 102.998 414.676C102.998 414.676 111.343 462.036 116.355 462C121.368 461.964 120.277 449.085 120.277 449.085L128.67 430.468L119.559 417.648Z" fill="#2F2E41"/>
<path d="M94.457 331.264C94.457 331.264 81.196 351.786 92.7718 365.428C104.348 379.069 161.256 379.828 161.256 379.828L125.178 405.751L138.497 418.639C138.497 418.639 193.051 384.36 193.486 375.543C193.921 366.726 177.1 359.22 177.1 359.22L137.798 345.678L128.919 338.365L94.457 331.264Z" fill="#2F2E41"/>
<path d="M128.524 283.729C128.524 283.729 115.629 278.843 109.521 278.843C108.937 278.843 108.36 278.913 107.784 279.039C103.874 279.89 100.277 283.345 98.5537 285.229C97.8817 285.969 97.4949 286.465 97.4949 286.465C97.4949 286.465 97.5357 285.983 97.6171 285.139C98.0175 280.7 99.497 266.135 102.151 256.811C103.101 253.481 104.193 250.822 105.449 249.531C108.374 246.516 109.725 242.901 110.349 240.207C110.878 237.897 110.878 236.271 110.878 236.271L105.931 234.08L105.015 227.924C104.852 228.65 104.098 230.067 101.567 232.782C101.35 233.012 101.112 233.207 100.861 233.375C97.2099 235.734 89.7649 231.63 85.7539 229.048C87.4234 223.081 90.4503 217.623 95.9475 216.73C108.842 214.636 108.842 206.959 116.986 215.334C117.658 216.025 118.337 216.688 119.016 217.33C121.622 222.453 122.572 229.32 122.911 234.094C123.155 237.437 123.094 239.761 123.094 239.761C123.094 239.761 126.488 260.698 131.917 264.885C137.346 269.073 128.524 283.729 128.524 283.729Z" fill="#2F2E41"/>
<path d="M103.413 250.229L94.2432 264.061L114.951 269.771V250.229H103.413Z" fill="#FFB6B6"/>
<path opacity="0.1" d="M103.413 250.229L94.2432 264.061L114.951 269.771V250.229H103.413Z" fill="black"/>
<path d="M116.238 263.552L96.5565 255.177C96.5565 255.177 70.0884 267.042 72.1244 290.073C74.1604 313.104 93.1632 352.884 93.1632 352.884L131.169 336.135L127.097 291.469L116.238 263.552Z" fill="#E6E6E6"/>
<path d="M107.799 256.405C117.389 256.405 125.163 248.41 125.163 238.549C125.163 228.687 117.389 220.693 107.799 220.693C98.2096 220.693 90.4355 228.687 90.4355 238.549C90.4355 248.41 98.2096 256.405 107.799 256.405Z" fill="#FFB6B6"/>
<path d="M131.238 232.084C127.845 235.573 125.13 239.063 125.13 239.063L123.773 233.479C123.773 233.479 123.461 233.717 122.911 234.094C120.759 235.601 114.984 239.391 110.349 240.207C108.285 240.57 106.453 240.34 105.259 239.063C102.727 236.348 101.974 234.931 101.811 234.205L100.895 240.361L95.9473 242.552C95.9473 242.552 95.9473 250.215 101.377 255.812C101.641 256.085 101.899 256.42 102.15 256.811C104.743 260.83 106.602 270.671 107.783 279.039C108.828 286.479 109.331 292.746 109.331 292.746C109.331 292.746 104.193 286.13 98.5534 285.229C98.2412 285.18 97.929 285.146 97.6168 285.139C97.515 285.125 97.4064 285.125 97.3046 285.125C91.1966 285.125 78.3019 290.01 78.3019 290.01C78.3019 290.01 69.4792 275.354 74.9085 271.166C80.3379 266.979 83.7312 246.042 83.7312 246.042C83.7312 246.042 83.5073 237.081 85.7537 229.048C87.4232 223.081 90.4501 217.623 95.9473 216.73C108.842 214.636 108.842 206.959 116.986 215.334C117.658 216.025 118.337 216.688 119.015 217.33C126.603 224.504 134.353 228.88 131.238 232.084Z" fill="#2F2E41"/>
<path d="M55.0824 325.768H48.6338V456.739H55.0824V325.768Z" fill="#3F3D56"/>
<path d="M211.461 325.768H205.013V456.739H211.461V325.768Z" fill="#3F3D56"/>
<path d="M170.352 270.23H127.63V314.163H170.352V270.23Z" fill="black"/>
<path d="M103.005 316.942L120.375 305.583L127.437 309.963L103.005 338.833V316.942Z" fill="#FFB6B6"/>
<path d="M79.2512 272.974C79.2512 272.974 67.7138 275.766 73.1432 291.817C78.5725 307.869 96.218 341.369 101.647 339.275C107.077 337.181 107.755 316.244 107.755 316.244C107.755 316.244 107.077 316.942 104.362 314.151C101.647 311.359 101.647 312.634 101.647 309.554C101.647 306.474 99.4269 304.19 99.4269 304.19L96.8966 298.797C96.8966 298.797 96.8966 273.672 86.7166 272.276C76.5365 270.88 79.2512 272.974 79.2512 272.974Z" fill="#E6E6E6"/>
<path d="M133.154 309.212C137.659 304.579 139.056 298.503 136.273 295.641C133.49 292.78 127.582 294.216 123.076 298.849C118.571 303.482 117.174 309.558 119.957 312.42C122.74 315.282 128.648 313.846 133.154 309.212Z" fill="#FFB6B6"/>
<path d="M224.359 320.795H29.2881V335.715H224.359V320.795Z" fill="#3F3D56"/>
<path d="M422.549 201.429H393.74C391.456 201.429 389.604 203.333 389.604 205.682V217.9C389.604 220.249 391.456 222.153 393.74 222.153H422.549C424.833 222.153 426.684 220.249 426.684 217.9V205.682C426.684 203.333 424.833 201.429 422.549 201.429Z" fill="#3F3D56"/>
<path d="M483.005 213.648H454.196C451.912 213.648 450.061 215.552 450.061 217.9V217.9C450.061 220.249 451.912 222.153 454.196 222.153H483.005C485.289 222.153 487.14 220.249 487.14 217.9C487.14 215.552 485.289 213.648 483.005 213.648Z" fill="black"/>
</g>
<defs>
<clipPath id="clip0_41_26">
<rect width="686" height="462" fill="white"/>
</clipPath>
</defs>
</svg>
