<svg width="268" height="324" viewBox="0 0 268 324" fill="none" xmlns="http://www.w3.org/2000/svg">
<g clip-path="url(#clip0_51_83)">
<path d="M248.747 27.4277H37.3474C29.5925 27.4277 23.2866 33.7349 23.2866 41.4913V186.386C23.2866 194.142 29.5925 200.449 37.3474 200.449H248.747C256.502 200.449 262.807 194.142 262.807 186.386V41.4913C262.807 33.7349 256.502 27.4277 248.747 27.4277Z" fill="#F2F2F2"/>
<path d="M225.812 38.5884H14.4123C6.65749 38.5884 0.351562 44.8955 0.351562 52.6519V197.546C0.351562 205.303 6.65749 211.61 14.4123 211.61H225.812C233.566 211.61 239.872 205.303 239.872 197.546V52.6519C239.872 44.8955 233.566 38.5884 225.812 38.5884ZM238.394 154.9C238.394 185.403 213.671 210.131 183.174 210.131H14.4123C7.46335 210.131 1.83009 204.497 1.83009 197.546V52.6519C1.83009 45.7016 7.46333 40.0672 14.4123 40.0672H225.812C232.761 40.0672 238.394 45.7016 238.394 52.6519V154.9Z" fill="#3F3D56"/>
<path d="M30.5475 180.209L29.2964 179.422C30.1096 178.129 30.9489 176.876 31.79 175.697L32.9934 176.556C32.1686 177.711 31.346 178.94 30.5475 180.209Z" fill="#CCCCCC"/>
<path d="M38.7 169.671L37.6416 168.638C39.8977 166.326 42.2721 164.34 44.6985 162.738L45.5136 163.972C43.1749 165.516 40.8824 167.434 38.7 169.671ZM75.5858 160.336C73.8203 160.336 72.2118 160.11 71.0077 159.913L71.2466 158.454C72.4667 158.654 73.9362 158.858 75.5858 158.858C77.0427 158.858 78.4746 158.698 79.9633 158.368L80.2824 159.812C78.6876 160.165 77.1513 160.336 75.5858 160.336ZM53.4625 160.141L53.0177 158.73C54.606 158.229 56.2513 157.854 57.9078 157.614C59.3304 157.408 60.6905 157.308 62.0654 157.308H62.1564V158.787H62.0654C60.7619 158.787 59.4715 158.882 58.1197 159.077C56.5419 159.306 54.9745 159.664 53.4625 160.141ZM88.7041 155.867L87.7591 154.73C89.7993 153.035 91.2615 150.985 92.8101 148.815L93.4277 147.952L94.6276 148.816L94.0136 149.674C92.408 151.924 90.8912 154.05 88.7041 155.867ZM100.561 142.308L99.6515 141.142C101.644 139.586 103.896 138.326 106.535 137.289C106.984 137.112 107.414 136.954 107.826 136.814L108.303 138.213C107.911 138.347 107.503 138.497 107.076 138.665C104.571 139.65 102.44 140.841 100.561 142.308ZM118.411 137.171C117.913 137.171 117.441 137.167 116.988 137.162L117.005 135.683C117.469 135.688 117.953 135.689 118.464 135.693C120.204 135.693 122.627 135.643 125.951 135.258L126.122 136.727C122.688 137.125 120.227 137.166 118.411 137.171ZM135.116 135.235L134.822 133.786C137.478 133.248 140.568 132.609 143.626 131.82L143.995 133.252C140.902 134.05 137.79 134.694 135.116 135.235ZM152.705 130.448L152.152 129.077C155.116 127.881 157.69 126.533 160.022 124.955L160.85 126.179C158.432 127.817 155.767 129.213 152.705 130.448ZM167.643 119.881L166.444 119.017C166.856 118.444 167.213 117.886 167.557 117.346C168.575 115.751 169.628 114.102 172.135 112.078L172.311 111.938L173.227 113.098L173.064 113.229C170.744 115.102 169.802 116.578 168.804 118.142C168.448 118.699 168.08 119.275 167.643 119.881ZM180.907 108.79L180.368 107.413C183.003 106.38 185.979 105.548 189.214 104.941L189.487 106.395C186.343 106.985 183.456 107.791 180.907 108.79Z" fill="#CCCCCC"/>
<path d="M198.524 105.309L198.432 103.833C199.868 103.743 201.37 103.684 202.896 103.656L202.923 105.135C201.419 105.162 199.939 105.22 198.524 105.309Z" fill="#CCCCCC"/>
<path d="M47.0342 54.6123H26.2905C25.2481 54.6123 24.3979 55.4626 24.3979 56.5052C24.3979 57.5551 25.2481 58.4055 26.2905 58.4055H47.0342C48.0765 58.4055 48.9267 57.5551 48.9267 56.5052C48.9267 55.4627 48.0765 54.6123 47.0342 54.6123Z" fill="#E6E6E6"/>
<path d="M81.7793 54.6123H61.0356C59.9932 54.6123 59.1431 55.4626 59.1431 56.5052C59.1431 57.5551 59.9932 58.4055 61.0356 58.4055H81.7793C82.8216 58.4055 83.6718 57.5551 83.6718 56.5052C83.6718 55.4627 82.8217 54.6123 81.7793 54.6123Z" fill="#E6E6E6"/>
<path d="M116.525 54.6123H95.7812C94.7388 54.6123 93.8887 55.4626 93.8887 56.5052C93.8887 57.5551 94.7388 58.4055 95.7812 58.4055H116.525C117.567 58.4055 118.417 57.5551 118.417 56.5052C118.417 55.4627 117.567 54.6123 116.525 54.6123Z" fill="#E6E6E6"/>
<path d="M212.889 179.076H24.3774V180.555H212.889V179.076Z" fill="#E6E6E6"/>
<path d="M202.932 71.1224C189.514 71.4699 179.504 75.4183 173.162 82.842C170.818 85.5926 169.864 87.7591 168.859 90.0512C167.861 92.3138 166.841 94.643 164.468 97.6819V95.1679C165.939 93.0089 166.73 91.2047 167.506 89.4523C168.556 87.0566 169.554 84.794 172.038 81.8882C178.662 74.1244 189.041 70.0059 202.887 69.6436L202.932 71.1224Z" fill="#CCCCCC"/>
<path d="M168.859 90.0512C167.861 92.3138 166.841 94.643 164.467 97.6819C164.187 98.0442 163.883 98.4213 163.558 98.8132C154.998 108.995 143.561 112.337 134.365 115.028C133.788 115.199 133.226 115.354 132.679 115.502C124.503 117.72 120.023 117.639 116.689 117.587C113.34 117.528 111.13 117.491 107.175 119.753C99.9225 123.887 96.9507 129.935 94.075 135.784C91.1105 141.802 88.3161 147.488 81.1896 150.158C76.2439 152.006 72.7695 151.089 69.0953 150.128C65.9386 149.293 60.2495 128.727 55.212 125.728C44.8106 127.909 38.4899 161.907 30.6019 180.111L29.2417 179.52C37.3366 160.857 44.0047 126.571 54.9014 124.278C59.7584 123.258 66.153 147.821 69.4723 148.694C72.9173 149.603 76.1626 150.454 80.6721 148.768C87.2515 146.313 89.7946 141.13 92.7443 135.133C95.5831 129.366 98.7988 122.829 106.435 118.467C110.745 116.004 113.251 116.049 116.711 116.108C120.008 116.167 124.459 116.241 132.679 113.971C133.093 113.853 133.515 113.735 133.951 113.609C142.955 110.976 154.155 107.701 162.42 97.8668C163.233 96.8982 163.906 96.0035 164.467 95.1679C165.939 93.0089 166.73 91.2047 167.506 89.4523C168.556 87.0566 169.864 87.7591 168.859 90.0512Z" fill="#19191A"/>
<path d="M90.0243 259.213C89.4391 257.175 88.4369 255.437 87.2439 254.196L82.9091 234.432L73.4604 236.747L78.875 256.547C78.5189 258.222 78.5901 260.222 79.1753 262.26C80.5122 266.916 84.0246 270.009 87.0204 269.167C90.0163 268.326 91.3612 263.869 90.0243 259.213Z" fill="#FFB6B6"/>
<path d="M88.7172 129.564C88.7172 129.564 73.7958 129.259 70.0016 140.127C66.5481 150.02 62.4542 177.198 64.6673 178.768L74.0875 245.674L87.5205 243.828L84.0729 163.551L88.7172 129.564Z" fill="#19191A"/>
<path d="M157.814 253.756L155.168 324H120.053L118.633 292.523L112.394 324H74.7583L79.4526 269.89L84.3022 258.51L87.5845 250.798L157.814 253.756Z" fill="#2F2E41"/>
<path d="M129.722 116.226L105.327 114.748L97.1949 125.099L79.4526 131.754L87.5845 210.871L83.8882 258.193C83.8882 258.193 135.637 299.6 157.814 253.756L151.9 198.301L153.379 133.972L136.376 126.578L129.722 116.226Z" fill="#19191A"/>
<path d="M176.688 98.2299C176.952 100.793 176.616 103.204 175.842 105.137L179.906 129.398L168.307 130.995L165.434 106.212C164.281 104.478 163.459 102.187 163.195 99.6237C162.59 93.7674 165.12 88.708 168.846 88.3231C172.572 87.9382 176.083 92.3736 176.688 98.2299Z" fill="#FFB6B6"/>
<path d="M156.485 136.75C152.486 129.914 142.568 129.27 138.125 135.825C136.911 137.618 137.249 139.632 136.959 142.053C135.728 152.328 155.415 182.69 169.036 186.186C170.824 186.645 171.842 188.574 173.646 188.961C178.991 190.11 183.967 185.867 183.678 180.407L179.978 110.379L164.433 115.682L165.428 152.04L156.485 136.75Z" fill="#19191A"/>
<path d="M120.056 112.834C131.924 112.834 141.545 103.211 141.545 91.3406C141.545 79.4704 131.924 69.8477 120.056 69.8477C108.188 69.8477 98.5674 79.4704 98.5674 91.3406C98.5674 103.211 108.188 112.834 120.056 112.834Z" fill="#FFB6B6"/>
<path d="M140.072 75.5585C139.887 75.6029 142.9 72.665 143.029 72.6008C145.986 71.122 142.948 85.5774 140.811 85.1708C135.555 84.1725 133.285 82.1909 131.245 87.1376C130.676 88.5129 130.321 90.0657 129.212 91.0491C127.689 92.3874 125.161 92.2765 123.919 93.8736C122.921 95.1602 123.209 97.0531 123.949 98.5023C124.688 99.9589 125.811 101.194 126.484 102.68C127.238 104.351 124.022 109.667 122.795 112.655V112.662L122.788 112.679C122.462 113.463 121.687 111.206 120.869 110.981C119.89 110.711 118.448 113.023 116.889 112.603C116.881 112.603 116.874 112.595 116.866 112.595C115.38 112.181 113.725 111.738 112.083 111.294H112.076C107.456 110.037 106.288 111.841 106.066 111.789L103.197 108.787C102.213 108.071 102.324 105.756 101.63 105.135C101.063 104.626 99.6474 105.801 99.2303 105.312C97.1852 102.917 96.7147 100.52 95.5091 95.7887C94.4076 91.4631 92.1233 78.5161 96.8176 77.9319C101.246 77.3774 98.0078 71.2107 102.466 71.44C102.199 70.316 102.695 69.1108 103.501 68.2827C104.299 67.4471 105.363 66.9295 106.435 66.4859C111.721 64.3268 110.841 62.471 116.415 63.7279C116.97 62.9516 125.02 63.4691 126.026 63.7279C126.1 63.7427 123.535 64.3565 127.504 63.7279C127.357 64.6374 129.87 65.0367 129.722 65.9461C130.277 65.1993 136.235 69.4879 136.376 70.3826C136.56 71.4991 134.875 70.9298 135.998 71.0998C136.664 71.2033 137.802 72.5565 137.691 73.2293C138.172 72.5786 138.652 71.9353 139.14 71.2847C139.229 71.2921 139.31 71.3069 139.399 71.3216C141.646 71.7505 139.07 79.0987 139.163 76.8081C139.333 72.6008 142.312 75.0631 140.072 75.5585Z" fill="#2F2E41"/>
<path d="M222.396 189.954C222.561 190.362 223.133 190.362 223.298 189.954C224.453 187.107 226.096 183.92 227.884 181.484C228.17 181.094 227.775 180.573 227.32 180.737L223.489 182.124V158.399H222.206V182.124L218.373 180.737C217.918 180.573 217.523 181.094 217.809 181.484C219.597 183.92 221.241 187.107 222.396 189.954Z" fill="#3F3D56"/>
<path d="M247.524 214.382C247.4 214.804 247.848 215.16 248.231 214.943C250.905 213.432 254.173 211.958 257.088 211.163C257.554 211.035 257.569 210.382 257.111 210.228L253.248 208.93L268 190.351L266.995 189.553L252.244 208.132L250.104 204.662C249.85 204.25 249.217 204.413 249.199 204.896C249.084 207.916 248.389 211.434 247.524 214.382Z" fill="#3F3D56"/>
<path d="M235.523 230.214H210.594C209.047 230.214 207.788 228.955 207.788 227.407C204.491 217.771 204.557 208.329 207.788 199.07C207.788 197.522 209.047 196.263 210.594 196.263H235.523C237.071 196.263 238.33 197.522 238.33 199.07V227.407C238.33 228.955 237.071 230.214 235.523 230.214Z" fill="#E6E6E6"/>
<path d="M215.936 197.099C211.898 197.099 208.624 200.373 208.624 204.412V226.805C208.624 228.226 209.775 229.378 211.196 229.378H224.981C231.892 229.378 237.494 223.774 237.494 216.862V199.671C237.494 198.251 236.343 197.099 234.922 197.099H215.936Z" fill="white"/>
<path d="M228.865 205.334H217.193C216.899 205.334 216.66 205.095 216.66 204.8C216.66 204.506 216.899 204.267 217.193 204.267H228.865C229.159 204.267 229.398 204.506 229.398 204.8C229.398 205.095 229.159 205.334 228.865 205.334Z" fill="#E6E6E6"/>
<path d="M228.865 216.715H217.193C216.899 216.715 216.66 216.476 216.66 216.182C216.66 215.887 216.899 215.648 217.193 215.648H228.865C229.159 215.648 229.398 215.887 229.398 216.182C229.398 216.476 229.159 216.715 228.865 216.715Z" fill="#E6E6E6"/>
<path d="M235.128 211.028H210.93C210.636 211.028 210.396 210.789 210.396 210.495C210.396 210.2 210.636 209.961 210.93 209.961H235.128C235.422 209.961 235.661 210.2 235.661 210.495C235.661 210.789 235.422 211.028 235.128 211.028Z" fill="#E6E6E6"/>
<path d="M235.413 221.343H225.316C225.022 221.343 224.783 221.103 224.783 220.809C224.783 220.515 225.022 220.275 225.316 220.275H235.413C235.707 220.275 235.947 220.515 235.947 220.809C235.947 221.103 235.707 221.343 235.413 221.343Z" fill="#E6E6E6"/>
<path d="M9.21363 18.2799C14.3022 18.2799 18.4273 14.2409 18.4273 9.2586C18.4273 4.27628 14.3022 0.237305 9.21363 0.237305C4.12508 0.237305 0 4.27628 0 9.2586C0 14.2409 4.12508 18.2799 9.21363 18.2799Z" fill="#19191A"/>
<path d="M83.0754 6.17247H33.4821C31.7808 6.17247 30.3965 4.78793 30.3965 3.08623C30.3965 1.38454 31.7807 0 33.4821 0H83.0754C84.7768 0 86.1611 1.38454 86.1611 3.08623C86.1611 4.78793 84.7768 6.17247 83.0754 6.17247Z" fill="#F2F2F2"/>
<path d="M121.778 16.6183H33.4821C31.7808 16.6183 30.3965 15.2337 30.3965 13.532C30.3965 11.8303 31.7807 10.4458 33.4821 10.4458H121.778C123.48 10.4458 124.864 11.8303 124.864 13.532C124.864 15.2337 123.48 16.6183 121.778 16.6183Z" fill="#F2F2F2"/>
</g>
<defs>
<clipPath id="clip0_51_83">
<rect width="268" height="324" fill="white"/>
</clipPath>
</defs>
</svg>
